<svg width="300" height="50" viewBox="0 0 300 50" fill="none" xmlns="http://www.w3.org/2000/svg">
<g clip-path="url(#clip0_1_2)">
<rect width="300" height="50" rx="9" fill="#FEC43A"/>
<path d="M176.48 15.0007H170.335C169.915 15.0007 169.557 15.3063 169.492 15.7215L167.006 31.4781C166.957 31.7889 167.198 32.0693 167.513 32.0693H170.447C170.867 32.0693 171.225 31.7638 171.29 31.3478L171.961 27.0981C172.025 26.682 172.384 26.3765 172.803 26.3765H174.749C178.796 26.3765 181.132 24.4178 181.742 20.5364C182.017 18.8382 181.754 17.504 180.959 16.5696C180.086 15.5434 178.537 15.0007 176.48 15.0007ZM177.189 20.7556C176.853 22.9605 175.168 22.9605 173.539 22.9605H172.612L173.263 18.8428C173.301 18.5939 173.517 18.4106 173.768 18.4106H174.193C175.303 18.4106 176.35 18.4106 176.891 19.0431C177.213 19.4205 177.312 19.9811 177.189 20.7556Z" fill="#283B82"/>
<path d="M194.848 20.6847H191.905C191.654 20.6847 191.438 20.868 191.399 21.1169L191.269 21.9399L191.063 21.6415C190.426 20.717 189.006 20.4079 187.588 20.4079C184.336 20.4079 181.559 22.8707 181.018 26.3253C180.737 28.0486 181.137 29.6964 182.114 30.8455C183.011 31.9021 184.294 32.3424 185.821 32.3424C188.441 32.3424 189.893 30.6578 189.893 30.6578L189.762 31.4754C189.713 31.7881 189.954 32.0684 190.267 32.0684H192.918C193.339 32.0684 193.695 31.7629 193.761 31.347L195.352 21.2758C195.402 20.9659 195.162 20.6847 194.848 20.6847ZM190.746 26.4116C190.462 28.0926 189.128 29.2212 187.426 29.2212C186.572 29.2212 185.889 28.9471 185.45 28.4277C185.016 27.912 184.85 27.178 184.989 26.3603C185.254 24.6937 186.61 23.5284 188.286 23.5284C189.122 23.5284 189.801 23.806 190.248 24.3297C190.697 24.8589 190.874 25.5975 190.746 26.4116Z" fill="#283B82"/>
<path d="M210.519 20.6847H207.562C207.28 20.6847 207.015 20.8248 206.855 21.0594L202.777 27.0666L201.048 21.2939C200.939 20.9326 200.606 20.6847 200.229 20.6847H197.323C196.97 20.6847 196.725 21.0297 196.837 21.3621L200.094 30.9201L197.032 35.2428C196.791 35.5832 197.034 36.0515 197.45 36.0515H200.403C200.683 36.0515 200.946 35.9148 201.105 35.6848L210.939 21.4889C211.175 21.1492 210.933 20.6847 210.519 20.6847Z" fill="#283B82"/>
<path d="M220.309 15.0007H214.163C213.744 15.0007 213.386 15.3063 213.32 15.7215L210.835 31.4781C210.786 31.7889 211.027 32.0693 211.34 32.0693H214.494C214.787 32.0693 215.037 31.8555 215.083 31.5644L215.788 27.0981C215.853 26.682 216.212 26.3765 216.631 26.3765H218.576C222.624 26.3765 224.959 24.4178 225.57 20.5364C225.846 18.8382 225.581 17.504 224.786 16.5696C223.913 15.5434 222.365 15.0007 220.309 15.0007ZM221.018 20.7556C220.683 22.9605 218.998 22.9605 217.368 22.9605H216.442L217.093 18.8428C217.132 18.5939 217.346 18.4106 217.598 18.4106H218.023C219.132 18.4106 220.179 18.4106 220.72 19.0431C221.043 19.4205 221.141 19.9811 221.018 20.7556Z" fill="#469BDB"/>
<path d="M238.676 20.6847H235.735C235.482 20.6847 235.267 20.868 235.23 21.1169L235.1 21.9399L234.893 21.6415C234.256 20.717 232.836 20.4079 231.418 20.4079C228.167 20.4079 225.391 22.8707 224.85 26.3253C224.569 28.0486 224.967 29.6964 225.945 30.8455C226.843 31.9021 228.125 32.3424 229.651 32.3424C232.271 32.3424 233.724 30.6578 233.724 30.6578L233.593 31.4754C233.543 31.7881 233.784 32.0684 234.1 32.0684H236.749C237.169 32.0684 237.526 31.7629 237.592 31.347L239.183 21.2758C239.232 20.9659 238.991 20.6847 238.676 20.6847ZM234.574 26.4116C234.292 28.0926 232.956 29.2212 231.254 29.2212C230.401 29.2212 229.717 28.9471 229.278 28.4277C228.844 27.912 228.68 27.178 228.817 26.3603C229.083 24.6937 230.438 23.5284 232.114 23.5284C232.949 23.5284 233.629 23.806 234.076 24.3297C234.526 24.8589 234.704 25.5975 234.574 26.4116Z" fill="#469BDB"/>
<path d="M242.145 15.433L239.622 31.4781C239.573 31.7889 239.814 32.0693 240.127 32.0693H242.663C243.084 32.0693 243.442 31.7638 243.507 31.3478L245.994 15.5922C246.043 15.2812 245.802 15 245.489 15H242.649C242.399 15.0007 242.183 15.1843 242.145 15.433Z" fill="#469BDB"/>
<path d="M62.152 25.288C62.7493 25.3947 63.256 25.7093 63.672 26.232C64.088 26.7547 64.296 27.3467 64.296 28.008C64.296 28.5733 64.1467 29.0853 63.848 29.544C63.56 29.992 63.1387 30.3493 62.584 30.616C62.0293 30.872 61.384 31 60.648 31H56.2V19.88H60.44C61.1973 19.88 61.848 20.008 62.392 20.264C62.936 20.52 63.3467 20.8667 63.624 21.304C63.9013 21.7307 64.04 22.2107 64.04 22.744C64.04 23.384 63.8693 23.9173 63.528 24.344C63.1867 24.7707 62.728 25.0853 62.152 25.288ZM58.024 24.552H60.28C60.8773 24.552 61.3413 24.4187 61.672 24.152C62.0133 23.8747 62.184 23.48 62.184 22.968C62.184 22.4667 62.0133 22.0773 61.672 21.8C61.3413 21.512 60.8773 21.368 60.28 21.368H58.024V24.552ZM60.488 29.512C61.1067 29.512 61.592 29.3627 61.944 29.064C62.296 28.7653 62.472 28.3493 62.472 27.816C62.472 27.272 62.2853 26.84 61.912 26.52C61.5387 26.2 61.0427 26.04 60.424 26.04H58.024V29.512H60.488ZM74.2621 22.184V31H72.4381V29.96C72.1501 30.3227 71.7715 30.6107 71.3021 30.824C70.8435 31.0267 70.3528 31.128 69.8301 31.128C69.1368 31.128 68.5128 30.984 67.9581 30.696C67.4141 30.408 66.9821 29.9813 66.6621 29.416C66.3528 28.8507 66.1981 28.168 66.1981 27.368V22.184H68.0061V27.096C68.0061 27.8853 68.2035 28.4933 68.5981 28.92C68.9928 29.336 69.5315 29.544 70.2141 29.544C70.8968 29.544 71.4355 29.336 71.8301 28.92C72.2355 28.4933 72.4381 27.8853 72.4381 27.096V22.184H74.2621ZM84.6048 22.184L79.1968 35.144H77.3088L79.1008 30.856L75.6288 22.184H77.6608L80.1408 28.904L82.7168 22.184H84.6048ZM94.5855 22.04C95.2788 22.04 95.8975 22.184 96.4415 22.472C96.9962 22.76 97.4282 23.1867 97.7375 23.752C98.0468 24.3173 98.2015 25 98.2015 25.8V31H96.3935V26.072C96.3935 25.2827 96.1962 24.68 95.8015 24.264C95.4068 23.8373 94.8682 23.624 94.1855 23.624C93.5028 23.624 92.9588 23.8373 92.5535 24.264C92.1588 24.68 91.9615 25.2827 91.9615 26.072V31H90.1375V22.184H91.9615V23.192C92.2602 22.8293 92.6388 22.5467 93.0975 22.344C93.5668 22.1413 94.0628 22.04 94.5855 22.04ZM104.352 31.144C103.52 31.144 102.768 30.9573 102.096 30.584C101.424 30.2 100.896 29.6667 100.512 28.984C100.128 28.2907 99.9361 27.4907 99.9361 26.584C99.9361 25.688 100.133 24.8933 100.528 24.2C100.923 23.5067 101.461 22.9733 102.144 22.6C102.827 22.2267 103.589 22.04 104.432 22.04C105.275 22.04 106.037 22.2267 106.72 22.6C107.403 22.9733 107.941 23.5067 108.336 24.2C108.731 24.8933 108.928 25.688 108.928 26.584C108.928 27.48 108.725 28.2747 108.32 28.968C107.915 29.6613 107.36 30.2 106.656 30.584C105.963 30.9573 105.195 31.144 104.352 31.144ZM104.352 29.56C104.821 29.56 105.259 29.448 105.664 29.224C106.08 29 106.416 28.664 106.672 28.216C106.928 27.768 107.056 27.224 107.056 26.584C107.056 25.944 106.933 25.4053 106.688 24.968C106.443 24.52 106.117 24.184 105.712 23.96C105.307 23.736 104.869 23.624 104.4 23.624C103.931 23.624 103.493 23.736 103.088 23.96C102.693 24.184 102.379 24.52 102.144 24.968C101.909 25.4053 101.792 25.944 101.792 26.584C101.792 27.5333 102.032 28.2693 102.512 28.792C103.003 29.304 103.616 29.56 104.352 29.56ZM122.571 22.184L119.835 31H117.915L116.139 24.488L114.363 31H112.443L109.691 22.184H111.547L113.387 29.272L115.259 22.184H117.163L118.955 29.24L120.779 22.184H122.571ZM139.931 22.184L137.195 31H135.275L133.499 24.488L131.723 31H129.803L127.051 22.184H128.907L130.747 29.272L132.619 22.184H134.523L136.315 29.24L138.139 22.184H139.931ZM142.222 21.016C141.891 21.016 141.614 20.904 141.39 20.68C141.166 20.456 141.054 20.1787 141.054 19.848C141.054 19.5173 141.166 19.24 141.39 19.016C141.614 18.792 141.891 18.68 142.222 18.68C142.542 18.68 142.814 18.792 143.038 19.016C143.262 19.24 143.374 19.5173 143.374 19.848C143.374 20.1787 143.262 20.456 143.038 20.68C142.814 20.904 142.542 21.016 142.222 21.016ZM143.118 22.184V31H141.294V22.184H143.118ZM147.641 23.672V28.552C147.641 28.8827 147.715 29.1227 147.865 29.272C148.025 29.4107 148.291 29.48 148.665 29.48H149.785V31H148.345C147.523 31 146.894 30.808 146.457 30.424C146.019 30.04 145.801 29.416 145.801 28.552V23.672H144.761V22.184H145.801V19.992H147.641V22.184H149.785V23.672H147.641ZM156.026 22.04C156.698 22.04 157.295 22.184 157.818 22.472C158.351 22.76 158.767 23.1867 159.066 23.752C159.375 24.3173 159.53 25 159.53 25.8V31H157.722V26.072C157.722 25.2827 157.524 24.68 157.13 24.264C156.735 23.8373 156.196 23.624 155.514 23.624C154.831 23.624 154.287 23.8373 153.882 24.264C153.487 24.68 153.29 25.2827 153.29 26.072V31H151.466V19.16H153.29V23.208C153.599 22.8347 153.988 22.5467 154.458 22.344C154.938 22.1413 155.46 22.04 156.026 22.04Z" fill="#262626"/>
</g>
<defs>
<clipPath id="clip0_1_2">
<rect width="300" height="50" fill="white"/>
</clipPath>
</defs>
</svg>
