<svg width="512" height="512" viewBox="0 0 512 512" fill="none" xmlns="http://www.w3.org/2000/svg">
<g clip-path="url(#clip0_43_2)">
<g clip-path="url(#clip1_43_2)">
<rect width="512" height="512" fill="#068FFF"/>
<path d="M512 0H0V512H512V0Z" fill="white"/>
<path d="M334.668 505.335L6.66493 177.332C2.39745 173.064 0 167.276 0 161.241V22.7556C0 10.188 10.188 0 22.7556 0H161.241C167.276 0 173.064 2.39746 177.332 6.66493L505.335 334.668C509.603 338.936 512 344.724 512 350.759V489.244C512 501.812 501.812 512 489.244 512H350.759C344.724 512 338.936 509.603 334.668 505.335Z" fill="#068FFF"/>
<path d="M147.911 341.333H22.7556C10.188 341.333 0 351.521 0 364.089V489.244C0 501.812 10.188 512 22.7556 512H147.911C160.479 512 170.667 501.812 170.667 489.244V364.089C170.667 351.521 160.479 341.333 147.911 341.333Z" fill="#068FFF"/>
<path d="M489.244 0H364.089C351.521 0 341.333 10.188 341.333 22.7556V147.911C341.333 160.479 351.521 170.667 364.089 170.667H489.244C501.812 170.667 512 160.479 512 147.911V22.7556C512 10.188 501.812 0 489.244 0Z" fill="#068FFF"/>
</g>
</g>
<defs>
<clipPath id="clip0_43_2">
<rect width="512" height="512" fill="white"/>
</clipPath>
<clipPath id="clip1_43_2">
<rect width="512" height="512" fill="white"/>
</clipPath>
</defs>
</svg>
