<svg width="1920" height="1080" viewBox="0 0 1920 1080" fill="none" xmlns="http://www.w3.org/2000/svg">
<g clip-path="url(#clip0_1_2)">
<rect width="1920" height="1080" fill="white"/>
<rect width="1920" height="1080" fill="#DC2626"/>
<g opacity="0.25">
<path opacity="0.306122" d="M319.253 1601.83C107.265 1480.13 -17.6733 1461.21 -249.625 1501.52C-513.969 1558.5 -677.991 1542.13 -941.817 1379.46C-1162.52 1243.39 -1376.5 1200.09 -1649.13 1254.75C-1962.49 1317.56 -2110.98 1327.32 -2392.51 1123.67" stroke="white" stroke-opacity="0.5" stroke-width="4"/>
<path opacity="0.326531" d="M333.143 1598.44C134.276 1459.19 12.402 1429.69 -220.535 1450.08C-486.979 1484.3 -647.728 1454.02 -894.233 1269.56C-1100.45 1115.25 -1308.22 1053.9 -1582.65 1085.1C-1898.08 1120.96 -2045.78 1118.03 -2306.17 891.234" stroke="white" stroke-opacity="0.5" stroke-width="4"/>
<path opacity="0.346939" d="M346.835 1595.79C162.523 1440.34 44.5958 1400.67 -187.631 1401.26C-454.234 1412.79 -610.544 1369.05 -837.951 1164.56C-1028.19 993.494 -1228.25 914.848 -1502.48 922.692C-1817.68 931.708 -1963.52 916.293 -2200.89 668.491" stroke="white" stroke-opacity="0.5" stroke-width="4"/>
<path opacity="0.367347" d="M360.264 1593.86C191.804 1423.69 78.6639 1374.3 -151.186 1355.37C-416.034 1344.43 -566.791 1287.77 -773.502 1065.18C-946.43 878.965 -1137.35 783.891 -1409.42 768.646C-1722.13 751.124 -1865.06 723.527 -2077.75 456.996" stroke="white" stroke-opacity="0.5" stroke-width="4"/>
<path opacity="0.387755" d="M373.368 1592.63C221.913 1409.31 114.348 1350.74 -111.502 1312.69C-372.72 1279.68 -516.87 1210.72 -701.476 972.07C-855.911 772.421 -1036.36 661.909 -1304.34 624.006C-1612.35 580.441 -1751.37 541.048 -1937.94 258.195" stroke="white" stroke-opacity="0.5" stroke-width="4"/>
<path opacity="0.408163" d="M386.088 1592.07C252.635 1397.25 151.381 1330.09 -68.8981 1273.48C-324.667 1218.93 -461.223 1138.4 -622.511 885.837C-757.439 674.551 -926.198 549.695 -1188.22 489.723C-1489.38 420.793 -1623.53 370.071 -1782.77 73.4133" stroke="white" stroke-opacity="0.5" stroke-width="4"/>
<path opacity="0.428571" d="M398.368 1592.13C283.757 1387.57 189.487 1312.45 -23.7163 1237.96C-272.282 1162.56 -400.331 1071.25 -537.295 807.015C-651.876 585.965 -807.823 447.955 -1062.1 366.655C-1354.35 273.21 -1482.72 211.704 -1613.65 -96.1573" stroke="white" stroke-opacity="0.5" stroke-width="4"/>
<path opacity="0.44898" d="M410.154 1592.78C315.059 1380.26 228.38 1297.9 23.6861 1206.31C-216 1110.9 -334.709 1009.67 -446.556 736.071C-540.124 507.187 -682.263 357.297 -927.073 255.555C-1208.45 138.613 -1330.19 66.9389 -1432.09 -249.462" stroke="white" stroke-opacity="0.5" stroke-width="4"/>
<path opacity="0.469388" d="M421.397 1593.98C346.323 1375.33 267.777 1286.48 72.939 1178.7C-156.281 1064.24 -264.903 954.015 -351.054 673.405C-423.126 438.657 -550.581 278.235 -784.311 157.069C-1052.96 17.803 -1167.26 -63.3562 -1239.66 -385.593" stroke="white" stroke-opacity="0.5" stroke-width="4"/>
<path opacity="0.489796" d="M432.052 1595.67C377.335 1372.75 307.389 1278.19 123.662 1155.24C-93.6045 1022.81 -191.481 904.578 -251.577 619.343C-301.851 380.724 -413.877 211.18 -635.015 71.7365C-889.188 -88.5383 -995.348 -178.44 -1038 -503.79" stroke="white" stroke-opacity="0.5" stroke-width="4"/>
<path opacity="0.510204" d="M442.078 1597.8C407.881 1372.5 346.928 1273.04 175.469 1136.02C-28.4662 986.825 -115.034 861.604 -148.933 574.136C-177.292 333.649 -273.275 156.441 -480.422 -0.0207362C-718.514 -179.855 -815.879 -277.705 -828.813 -603.452" stroke="white" stroke-opacity="0.5" stroke-width="4"/>
<path opacity="0.530612" d="M451.438 1600.31C437.755 1374.49 386.114 1270.98 227.969 1121.08C38.6266 956.426 -36.1632 825.283 -43.9425 537.962C-50.4504 297.599 -129.914 114.221 -321.795 -57.8936C-542.339 -255.719 -630.335 -360.675 -613.813 -684.13" stroke="white" stroke-opacity="0.5" stroke-width="4"/>
<path opacity="0.55102" d="M460.103 1603.15C466.758 1378.66 424.667 1271.95 280.771 1110.44C107.158 931.722 44.5156 795.747 62.5654 510.924C77.6653 272.65 15.0606 84.6215 -160.407 -101.689C-362.088 -315.832 -440.222 -427.013 -394.749 -745.538" stroke="white" stroke-opacity="0.5" stroke-width="4"/>
<path opacity="0.571429" d="M468.045 1606.25C494.699 1384.9 462.319 1275.87 333.489 1104.08C176.612 912.769 126.385 773.073 169.764 493.048C206.053 258.787 160.509 67.6396 2.46224 -131.331C-179.194 -360.025 -247.053 -476.518 -173.37 -787.545" stroke="white" stroke-opacity="0.5" stroke-width="4"/>
<path opacity="0.591837" d="M475.246 1609.55C521.397 1393.11 498.812 1282.63 385.74 1101.94C246.468 899.581 208.828 757.284 276.832 484.287C333.722 255.907 305.303 63.1699 165.545 -146.856C4.90889 -388.257 -52.3453 -509.126 48.583 -810.179" stroke="white" stroke-opacity="0.5" stroke-width="4"/>
<path opacity="0.612245" d="M481.691 1612.98C546.685 1403.15 533.899 1292.09 437.154 1103.93C316.216 892.122 291.232 748.346 382.963 484.522C459.703 263.815 448.336 71.0076 327.589 -148.415C188.803 -400.617 142.398 -524.909 269.39 -813.624" stroke="white" stroke-opacity="0.5" stroke-width="4"/>
<path opacity="0.632653" d="M487.37 1616.48C570.405 1414.88 567.347 1304.1 487.37 1109.92C385.353 890.313 372.994 746.17 487.37 493.561C583.054 282.237 588.534 90.8508 487.37 -136.269C371.094 -397.316 335.698 -524.068 487.37 -798.211" stroke="white" stroke-opacity="0.5" stroke-width="4"/>
<path opacity="0.653061" d="M492.282 1619.98C592.417 1428.14 598.942 1318.49 536.044 1119.78C453.387 894.03 453.528 750.619 589.292 511.147C702.868 310.813 724.862 122.305 643.704 -110.782C550.422 -378.69 526.111 -506.936 700.89 -764.422" stroke="white" stroke-opacity="0.5" stroke-width="4"/>
<path opacity="0.673469" d="M496.428 1623.41C612.595 1442.78 628.483 1335.06 582.847 1133.31C519.846 903.109 532.266 761.501 688 536.955C818.282 349.108 856.33 164.888 795.45 -72.4243C725.475 -345.187 712.241 -473.97 908.379 -712.874" stroke="white" stroke-opacity="0.5" stroke-width="4"/>
<path opacity="0.693878" d="M499.818 1626.71C630.829 1458.6 655.793 1353.62 627.474 1150.29C584.277 917.343 608.664 778.578 782.803 570.6C928.481 396.613 982.006 218.032 941.525 -21.759C894.997 -297.371 892.749 -425.742 1108.34 -644.321" stroke="white" stroke-opacity="0.5" stroke-width="4"/>
<path opacity="0.714286" d="M502.466 1629.82C647.026 1475.42 680.712 1373.93 669.639 1170.51C646.25 936.49 682.206 801.567 873.051 611.64C1032.71 452.753 1101.02 281.094 1080.91 40.5599C1057.79 -235.907 1066.36 -362.941 1299.36 -559.638" stroke="white" stroke-opacity="0.5" stroke-width="4"/>
<path opacity="0.734694" d="M504.392 1632.65C661.112 1493.04 703.104 1395.76 709.083 1193.69C705.365 960.272 752.409 830.141 958.144 659.578C1130.26 516.891 1212.56 353.361 1212.65 113.795C1212.75 -161.559 1231.89 -286.355 1480.13 -459.817" stroke="white" stroke-opacity="0.5" stroke-width="4"/>
<path opacity="0.755102" d="M505.622 1635.17C673.029 1511.28 722.855 1418.86 745.57 1219.56C761.247 988.376 818.822 863.936 1037.53 713.873C1220.5 588.334 1315.9 434.053 1335.87 197.132C1358.83 -75.1819 1388.21 -196.872 1649.42 -345.956" stroke="white" stroke-opacity="0.5" stroke-width="4"/>
<path opacity="0.77551" d="M506.187 1637.3C682.741 1529.92 739.874 1442.99 778.896 1247.83C813.557 1020.46 881.034 902.551 1110.72 773.936C1302.87 666.34 1410.39 522.336 1449.79 289.689C1495.08 22.288 1534.32 -95.4673 1806.15 -219.248" stroke="white" stroke-opacity="0.5" stroke-width="4"/>
<path opacity="0.795918" d="M506.124 1638.99C690.227 1548.76 754.094 1467.89 808.882 1278.17C861.99 1056.17 938.673 945.555 1177.27 839.144C1376.87 750.125 1495.46 617.326 1553.71 390.525C1620.66 129.843 1669.3 16.8073 1949.34 -80.9686" stroke="white" stroke-opacity="0.5" stroke-width="4"/>
<path opacity="0.816327" d="M505.471 1640.18C695.487 1567.59 765.473 1493.28 835.383 1310.27C906.275 1095.1 991.413 992.486 1236.81 908.843C1442.1 838.869 1570.62 718.098 1647.01 498.645C1734.8 246.41 1792.33 138.83 2078.12 67.5336" stroke="white" stroke-opacity="0.5" stroke-width="4"/>
<path opacity="0.836735" d="M504.276 1640.83C698.54 1586.22 773.992 1518.92 858.282 1343.79C946.181 1136.86 1038.97 1042.86 1289.03 982.35C1498.21 931.727 1635.49 823.696 1729.18 613.016C1836.87 370.864 1902.7 269.422 2191.78 224.851" stroke="white" stroke-opacity="0.5" stroke-width="4"/>
<path opacity="0.857143" d="M502.587 1640.9C699.423 1604.44 779.657 1544.52 877.495 1378.38C981.517 1181.01 1081.11 1096.18 1333.67 1058.97C1544.96 1027.83 1689.75 933.137 1799.82 732.567C1926.33 502.036 1999.84 407.355 2289.73 389.528" stroke="white" stroke-opacity="0.5" stroke-width="4"/>
<path opacity="0.877551" d="M500.457 1640.33C698.19 1622.05 782.5 1569.84 892.97 1413.71C1012.13 1227.12 1117.64 1151.93 1370.57 1137.97C1582.16 1126.3 1733.2 1045.42 1858.6 856.207C2002.74 638.724 2083.26 551.366 2371.52 560.075" stroke="white" stroke-opacity="0.5" stroke-width="4"/>
<path opacity="0.897959" d="M497.943 1639.1C694.915 1638.87 782.573 1594.62 904.687 1449.43C1037.91 1274.75 1148.43 1209.58 1399.6 1218.65C1609.72 1226.25 1765.71 1159.55 1905.33 982.829C2065.8 779.703 2152.61 700.165 2436.84 734.981" stroke="white" stroke-opacity="0.5" stroke-width="4"/>
<path opacity="0.918367" d="M495.105 1637.18C689.685 1654.72 779.953 1618.61 912.656 1485.2C1058.79 1323.45 1173.38 1268.59 1420.72 1300.28C1627.64 1326.79 1787.27 1274.52 1939.88 1111.32C2115.29 923.736 2207.67 852.448 2485.52 912.725" stroke="white" stroke-opacity="0.5" stroke-width="4"/>
<path opacity="0.938776" d="M492.004 1634.53C682.607 1669.42 774.74 1641.57 916.92 1520.67C1074.73 1372.77 1192.44 1328.43 1433.94 1382.14C1635.97 1427.06 1797.93 1389.34 1962.26 1240.57C2151.14 1069.58 2248.31 1006.91 2517.52 1091.79" stroke="white" stroke-opacity="0.5" stroke-width="4"/>
</g>
<path d="M973.9 562.6H947.7L943.5 575H925.6L951 504.8H970.8L996.2 575H978.1L973.9 562.6ZM969.5 549.4L960.8 523.7L952.2 549.4H969.5ZM1021.03 527.1C1022.7 524.5 1025 522.4 1027.93 520.8C1030.86 519.2 1034.3 518.4 1038.23 518.4C1042.83 518.4 1047 519.567 1050.73 521.9C1054.46 524.233 1057.4 527.567 1059.53 531.9C1061.73 536.233 1062.83 541.267 1062.83 547C1062.83 552.733 1061.73 557.8 1059.53 562.2C1057.4 566.533 1054.46 569.9 1050.73 572.3C1047 574.633 1042.83 575.8 1038.23 575.8C1034.36 575.8 1030.93 575 1027.93 573.4C1025 571.8 1022.7 569.733 1021.03 567.2V601.6H1003.93V519.2H1021.03V527.1ZM1045.43 547C1045.43 542.733 1044.23 539.4 1041.83 537C1039.5 534.533 1036.6 533.3 1033.13 533.3C1029.73 533.3 1026.83 534.533 1024.43 537C1022.1 539.467 1020.93 542.833 1020.93 547.1C1020.93 551.367 1022.1 554.733 1024.43 557.2C1026.83 559.667 1029.73 560.9 1033.13 560.9C1036.53 560.9 1039.43 559.667 1041.83 557.2C1044.23 554.667 1045.43 551.267 1045.43 547ZM1088.9 527.1C1090.57 524.5 1092.87 522.4 1095.8 520.8C1098.73 519.2 1102.17 518.4 1106.1 518.4C1110.7 518.4 1114.87 519.567 1118.6 521.9C1122.33 524.233 1125.27 527.567 1127.4 531.9C1129.6 536.233 1130.7 541.267 1130.7 547C1130.7 552.733 1129.6 557.8 1127.4 562.2C1125.27 566.533 1122.33 569.9 1118.6 572.3C1114.87 574.633 1110.7 575.8 1106.1 575.8C1102.23 575.8 1098.8 575 1095.8 573.4C1092.87 571.8 1090.57 569.733 1088.9 567.2V601.6H1071.8V519.2H1088.9V527.1ZM1113.3 547C1113.3 542.733 1112.1 539.4 1109.7 537C1107.37 534.533 1104.47 533.3 1101 533.3C1097.6 533.3 1094.7 534.533 1092.3 537C1089.97 539.467 1088.8 542.833 1088.8 547.1C1088.8 551.367 1089.97 554.733 1092.3 557.2C1094.7 559.667 1097.6 560.9 1101 560.9C1104.4 560.9 1107.3 559.667 1109.7 557.2C1112.1 554.667 1113.3 551.267 1113.3 547Z" fill="white"/>
<path d="M829.75 568.125C828.921 568.125 828.126 568.454 827.54 569.04C826.954 569.626 826.625 570.421 826.625 571.25C826.625 572.079 826.954 572.874 827.54 573.46C828.126 574.046 828.921 574.375 829.75 574.375H842.25C843.079 574.375 843.874 574.046 844.46 573.46C845.046 572.874 845.375 572.079 845.375 571.25C845.375 570.421 845.046 569.626 844.46 569.04C843.874 568.454 843.079 568.125 842.25 568.125H829.75Z" fill="white"/>
<path fill-rule="evenodd" clip-rule="evenodd" d="M821.937 493.125C818.208 493.125 814.631 494.607 811.994 497.244C809.357 499.881 807.875 503.458 807.875 507.187V572.812C807.875 576.542 809.357 580.119 811.994 582.756C814.631 585.393 818.208 586.875 821.937 586.875H850.062C853.792 586.875 857.369 585.393 860.006 582.756C862.643 580.119 864.125 576.542 864.125 572.812V507.187C864.125 503.458 862.643 499.881 860.006 497.244C857.369 494.607 853.792 493.125 850.062 493.125H821.937ZM817.25 507.187C817.25 504.6 819.35 502.5 821.937 502.5H826.625V504.062C826.625 506.65 828.725 508.75 831.312 508.75H840.687C843.275 508.75 845.375 506.65 845.375 504.062V502.5H850.062C852.65 502.5 854.75 504.6 854.75 507.187V572.812C854.75 575.4 852.65 577.5 850.062 577.5H821.937C820.694 577.5 819.502 577.006 818.623 576.127C817.744 575.248 817.25 574.056 817.25 572.812V507.187Z" fill="white"/>
</g>
<defs>
<clipPath id="clip0_1_2">
<rect width="1920" height="1080" fill="white"/>
</clipPath>
</defs>
</svg>
