<svg width="1920" height="1080" viewBox="0 0 1920 1080" fill="none" xmlns="http://www.w3.org/2000/svg">
<g clip-path="url(#clip0_1_2)">
<rect width="1920" height="1080" fill="white"/>
<rect width="1920" height="1080" fill="#DC2626"/>
<g opacity="0.25">
<path opacity="0.306122" d="M319.253 1601.83C107.265 1480.13 -17.6733 1461.21 -249.625 1501.52C-513.969 1558.5 -677.991 1542.13 -941.817 1379.46C-1162.52 1243.39 -1376.5 1200.09 -1649.13 1254.75C-1962.49 1317.56 -2110.98 1327.32 -2392.51 1123.67" stroke="white" stroke-opacity="0.5" stroke-width="4"/>
<path opacity="0.326531" d="M333.143 1598.44C134.276 1459.19 12.402 1429.69 -220.535 1450.08C-486.979 1484.3 -647.728 1454.02 -894.233 1269.56C-1100.45 1115.25 -1308.22 1053.9 -1582.65 1085.1C-1898.08 1120.96 -2045.78 1118.03 -2306.17 891.234" stroke="white" stroke-opacity="0.5" stroke-width="4"/>
<path opacity="0.346939" d="M346.835 1595.79C162.523 1440.34 44.5958 1400.67 -187.631 1401.26C-454.234 1412.79 -610.544 1369.05 -837.951 1164.56C-1028.19 993.494 -1228.25 914.848 -1502.48 922.692C-1817.68 931.708 -1963.52 916.293 -2200.89 668.491" stroke="white" stroke-opacity="0.5" stroke-width="4"/>
<path opacity="0.367347" d="M360.264 1593.86C191.804 1423.69 78.6639 1374.3 -151.186 1355.37C-416.034 1344.43 -566.791 1287.77 -773.502 1065.18C-946.43 878.965 -1137.35 783.891 -1409.42 768.646C-1722.13 751.124 -1865.06 723.527 -2077.75 456.996" stroke="white" stroke-opacity="0.5" stroke-width="4"/>
<path opacity="0.387755" d="M373.368 1592.63C221.913 1409.31 114.348 1350.74 -111.502 1312.69C-372.72 1279.68 -516.87 1210.72 -701.476 972.07C-855.911 772.421 -1036.36 661.909 -1304.34 624.006C-1612.35 580.441 -1751.37 541.048 -1937.94 258.195" stroke="white" stroke-opacity="0.5" stroke-width="4"/>
<path opacity="0.408163" d="M386.088 1592.07C252.635 1397.25 151.381 1330.09 -68.8981 1273.48C-324.667 1218.93 -461.223 1138.4 -622.511 885.837C-757.439 674.551 -926.198 549.695 -1188.22 489.723C-1489.38 420.793 -1623.53 370.071 -1782.77 73.4133" stroke="white" stroke-opacity="0.5" stroke-width="4"/>
<path opacity="0.428571" d="M398.368 1592.13C283.757 1387.57 189.487 1312.45 -23.7163 1237.96C-272.282 1162.56 -400.331 1071.25 -537.295 807.015C-651.876 585.965 -807.823 447.955 -1062.1 366.655C-1354.35 273.21 -1482.72 211.704 -1613.65 -96.1573" stroke="white" stroke-opacity="0.5" stroke-width="4"/>
<path opacity="0.44898" d="M410.154 1592.78C315.059 1380.26 228.38 1297.9 23.6861 1206.31C-216 1110.9 -334.709 1009.67 -446.556 736.071C-540.124 507.187 -682.263 357.297 -927.073 255.555C-1208.45 138.613 -1330.19 66.9389 -1432.09 -249.462" stroke="white" stroke-opacity="0.5" stroke-width="4"/>
<path opacity="0.469388" d="M421.397 1593.98C346.323 1375.33 267.777 1286.48 72.939 1178.7C-156.281 1064.24 -264.903 954.015 -351.054 673.405C-423.126 438.657 -550.581 278.235 -784.311 157.069C-1052.96 17.803 -1167.26 -63.3562 -1239.66 -385.593" stroke="white" stroke-opacity="0.5" stroke-width="4"/>
<path opacity="0.489796" d="M432.052 1595.67C377.335 1372.75 307.389 1278.19 123.662 1155.24C-93.6045 1022.81 -191.481 904.578 -251.577 619.343C-301.851 380.724 -413.877 211.18 -635.015 71.7365C-889.188 -88.5383 -995.348 -178.44 -1038 -503.79" stroke="white" stroke-opacity="0.5" stroke-width="4"/>
<path opacity="0.510204" d="M442.078 1597.8C407.881 1372.5 346.928 1273.04 175.469 1136.02C-28.4662 986.825 -115.034 861.604 -148.933 574.136C-177.292 333.649 -273.275 156.441 -480.422 -0.0207362C-718.514 -179.855 -815.879 -277.705 -828.813 -603.452" stroke="white" stroke-opacity="0.5" stroke-width="4"/>
<path opacity="0.530612" d="M451.438 1600.31C437.755 1374.49 386.114 1270.98 227.969 1121.08C38.6266 956.426 -36.1632 825.283 -43.9425 537.962C-50.4504 297.599 -129.914 114.221 -321.795 -57.8936C-542.339 -255.719 -630.335 -360.675 -613.813 -684.13" stroke="white" stroke-opacity="0.5" stroke-width="4"/>
<path opacity="0.55102" d="M460.103 1603.15C466.758 1378.66 424.667 1271.95 280.771 1110.44C107.158 931.722 44.5156 795.747 62.5654 510.924C77.6653 272.65 15.0606 84.6215 -160.407 -101.689C-362.088 -315.832 -440.222 -427.013 -394.749 -745.538" stroke="white" stroke-opacity="0.5" stroke-width="4"/>
<path opacity="0.571429" d="M468.045 1606.25C494.699 1384.9 462.319 1275.87 333.489 1104.08C176.612 912.769 126.385 773.073 169.764 493.048C206.053 258.787 160.509 67.6396 2.46224 -131.331C-179.194 -360.025 -247.053 -476.518 -173.37 -787.545" stroke="white" stroke-opacity="0.5" stroke-width="4"/>
<path opacity="0.591837" d="M475.246 1609.55C521.397 1393.11 498.812 1282.63 385.74 1101.94C246.468 899.581 208.828 757.284 276.832 484.287C333.722 255.907 305.303 63.1699 165.545 -146.856C4.90889 -388.257 -52.3453 -509.126 48.583 -810.179" stroke="white" stroke-opacity="0.5" stroke-width="4"/>
<path opacity="0.612245" d="M481.691 1612.98C546.685 1403.15 533.899 1292.09 437.154 1103.93C316.216 892.122 291.232 748.346 382.963 484.522C459.703 263.815 448.336 71.0076 327.589 -148.415C188.803 -400.617 142.398 -524.909 269.39 -813.624" stroke="white" stroke-opacity="0.5" stroke-width="4"/>
<path opacity="0.632653" d="M487.37 1616.48C570.405 1414.88 567.347 1304.1 487.37 1109.92C385.353 890.313 372.994 746.17 487.37 493.561C583.054 282.237 588.534 90.8508 487.37 -136.269C371.094 -397.316 335.698 -524.068 487.37 -798.211" stroke="white" stroke-opacity="0.5" stroke-width="4"/>
<path opacity="0.653061" d="M492.282 1619.98C592.417 1428.14 598.942 1318.49 536.044 1119.78C453.387 894.03 453.528 750.619 589.292 511.147C702.868 310.813 724.862 122.305 643.704 -110.782C550.422 -378.69 526.111 -506.936 700.89 -764.422" stroke="white" stroke-opacity="0.5" stroke-width="4"/>
<path opacity="0.673469" d="M496.428 1623.41C612.595 1442.78 628.483 1335.06 582.847 1133.31C519.846 903.109 532.266 761.501 688 536.955C818.282 349.108 856.33 164.888 795.45 -72.4243C725.475 -345.187 712.241 -473.97 908.379 -712.874" stroke="white" stroke-opacity="0.5" stroke-width="4"/>
<path opacity="0.693878" d="M499.818 1626.71C630.829 1458.6 655.793 1353.62 627.474 1150.29C584.277 917.343 608.664 778.578 782.803 570.6C928.481 396.613 982.006 218.032 941.525 -21.759C894.997 -297.371 892.749 -425.742 1108.34 -644.321" stroke="white" stroke-opacity="0.5" stroke-width="4"/>
<path opacity="0.714286" d="M502.466 1629.82C647.026 1475.42 680.712 1373.93 669.639 1170.51C646.25 936.49 682.206 801.567 873.051 611.64C1032.71 452.753 1101.02 281.094 1080.91 40.5599C1057.79 -235.907 1066.36 -362.941 1299.36 -559.638" stroke="white" stroke-opacity="0.5" stroke-width="4"/>
<path opacity="0.734694" d="M504.392 1632.65C661.112 1493.04 703.104 1395.76 709.083 1193.69C705.365 960.272 752.409 830.141 958.144 659.578C1130.26 516.891 1212.56 353.361 1212.65 113.795C1212.75 -161.559 1231.89 -286.355 1480.13 -459.817" stroke="white" stroke-opacity="0.5" stroke-width="4"/>
<path opacity="0.755102" d="M505.622 1635.17C673.029 1511.28 722.855 1418.86 745.57 1219.56C761.247 988.376 818.822 863.936 1037.53 713.873C1220.5 588.334 1315.9 434.053 1335.87 197.132C1358.83 -75.1819 1388.21 -196.872 1649.42 -345.956" stroke="white" stroke-opacity="0.5" stroke-width="4"/>
<path opacity="0.77551" d="M506.187 1637.3C682.741 1529.92 739.874 1442.99 778.896 1247.83C813.557 1020.46 881.034 902.551 1110.72 773.936C1302.87 666.34 1410.39 522.336 1449.79 289.689C1495.08 22.288 1534.32 -95.4673 1806.15 -219.248" stroke="white" stroke-opacity="0.5" stroke-width="4"/>
<path opacity="0.795918" d="M506.124 1638.99C690.227 1548.76 754.094 1467.89 808.882 1278.17C861.99 1056.17 938.673 945.555 1177.27 839.144C1376.87 750.125 1495.46 617.326 1553.71 390.525C1620.66 129.843 1669.3 16.8073 1949.34 -80.9686" stroke="white" stroke-opacity="0.5" stroke-width="4"/>
<path opacity="0.816327" d="M505.471 1640.18C695.487 1567.59 765.473 1493.28 835.383 1310.27C906.275 1095.1 991.413 992.486 1236.81 908.843C1442.1 838.869 1570.62 718.098 1647.01 498.645C1734.8 246.41 1792.33 138.83 2078.12 67.5336" stroke="white" stroke-opacity="0.5" stroke-width="4"/>
<path opacity="0.836735" d="M504.276 1640.83C698.54 1586.22 773.992 1518.92 858.282 1343.79C946.181 1136.86 1038.97 1042.86 1289.03 982.35C1498.21 931.727 1635.49 823.696 1729.18 613.016C1836.87 370.864 1902.7 269.422 2191.78 224.851" stroke="white" stroke-opacity="0.5" stroke-width="4"/>
<path opacity="0.857143" d="M502.587 1640.9C699.423 1604.44 779.657 1544.52 877.495 1378.38C981.517 1181.01 1081.11 1096.18 1333.67 1058.97C1544.96 1027.83 1689.75 933.137 1799.82 732.567C1926.33 502.036 1999.84 407.355 2289.73 389.528" stroke="white" stroke-opacity="0.5" stroke-width="4"/>
<path opacity="0.877551" d="M500.457 1640.33C698.19 1622.05 782.5 1569.84 892.97 1413.71C1012.13 1227.12 1117.64 1151.93 1370.57 1137.97C1582.16 1126.3 1733.2 1045.42 1858.6 856.207C2002.74 638.724 2083.26 551.366 2371.52 560.075" stroke="white" stroke-opacity="0.5" stroke-width="4"/>
<path opacity="0.897959" d="M497.943 1639.1C694.915 1638.87 782.573 1594.62 904.687 1449.43C1037.91 1274.75 1148.43 1209.58 1399.6 1218.65C1609.72 1226.25 1765.71 1159.55 1905.33 982.829C2065.8 779.703 2152.61 700.165 2436.84 734.981" stroke="white" stroke-opacity="0.5" stroke-width="4"/>
<path opacity="0.918367" d="M495.105 1637.18C689.685 1654.72 779.953 1618.61 912.656 1485.2C1058.79 1323.45 1173.38 1268.59 1420.72 1300.28C1627.64 1326.79 1787.27 1274.52 1939.88 1111.32C2115.29 923.736 2207.67 852.448 2485.52 912.725" stroke="white" stroke-opacity="0.5" stroke-width="4"/>
<path opacity="0.938776" d="M492.004 1634.53C682.607 1669.42 774.74 1641.57 916.92 1520.67C1074.73 1372.77 1192.44 1328.43 1433.94 1382.14C1635.97 1427.06 1797.93 1389.34 1962.26 1240.57C2151.14 1069.58 2248.31 1006.91 2517.52 1091.79" stroke="white" stroke-opacity="0.5" stroke-width="4"/>
</g>
<path d="M828.3 539.8C828.3 532.867 829.8 526.7 832.8 521.3C835.8 515.833 839.967 511.6 845.3 508.6C850.7 505.533 856.8 504 863.6 504C871.933 504 879.067 506.2 885 510.6C890.933 515 894.9 521 896.9 528.6H878.1C876.7 525.667 874.7 523.433 872.1 521.9C869.567 520.367 866.667 519.6 863.4 519.6C858.133 519.6 853.867 521.433 850.6 525.1C847.333 528.767 845.7 533.667 845.7 539.8C845.7 545.933 847.333 550.833 850.6 554.5C853.867 558.167 858.133 560 863.4 560C866.667 560 869.567 559.233 872.1 557.7C874.7 556.167 876.7 553.933 878.1 551H896.9C894.9 558.6 890.933 564.6 885 569C879.067 573.333 871.933 575.5 863.6 575.5C856.8 575.5 850.7 574 845.3 571C839.967 567.933 835.8 563.7 832.8 558.3C829.8 552.9 828.3 546.733 828.3 539.8ZM903.972 547C903.972 541.267 905.039 536.233 907.172 531.9C909.372 527.567 912.339 524.233 916.072 521.9C919.805 519.567 923.972 518.4 928.572 518.4C932.505 518.4 935.939 519.2 938.872 520.8C941.872 522.4 944.172 524.5 945.772 527.1V519.2H962.872V575H945.772V567.1C944.105 569.7 941.772 571.8 938.772 573.4C935.839 575 932.405 575.8 928.472 575.8C923.939 575.8 919.805 574.633 916.072 572.3C912.339 569.9 909.372 566.533 907.172 562.2C905.039 557.8 903.972 552.733 903.972 547ZM945.772 547.1C945.772 542.833 944.572 539.467 942.172 537C939.839 534.533 936.972 533.3 933.572 533.3C930.172 533.3 927.272 534.533 924.872 537C922.539 539.4 921.372 542.733 921.372 547C921.372 551.267 922.539 554.667 924.872 557.2C927.272 559.667 930.172 560.9 933.572 560.9C936.972 560.9 939.839 559.667 942.172 557.2C944.572 554.733 945.772 551.367 945.772 547.1ZM992.343 528.5C994.343 525.433 996.843 523.033 999.843 521.3C1002.84 519.5 1006.18 518.6 1009.84 518.6V536.7H1005.14C1000.88 536.7 997.676 537.633 995.543 539.5C993.41 541.3 992.343 544.5 992.343 549.1V575H975.243V519.2H992.343V528.5ZM1070.62 546.2C1070.62 547.8 1070.52 549.467 1070.32 551.2H1031.62C1031.88 554.667 1032.98 557.333 1034.92 559.2C1036.92 561 1039.35 561.9 1042.22 561.9C1046.48 561.9 1049.45 560.1 1051.12 556.5H1069.32C1068.38 560.167 1066.68 563.467 1064.22 566.4C1061.82 569.333 1058.78 571.633 1055.12 573.3C1051.45 574.967 1047.35 575.8 1042.82 575.8C1037.35 575.8 1032.48 574.633 1028.22 572.3C1023.95 569.967 1020.62 566.633 1018.22 562.3C1015.82 557.967 1014.62 552.9 1014.62 547.1C1014.62 541.3 1015.78 536.233 1018.12 531.9C1020.52 527.567 1023.85 524.233 1028.12 521.9C1032.38 519.567 1037.28 518.4 1042.82 518.4C1048.22 518.4 1053.02 519.533 1057.22 521.8C1061.42 524.067 1064.68 527.3 1067.02 531.5C1069.42 535.7 1070.62 540.6 1070.62 546.2ZM1053.12 541.7C1053.12 538.767 1052.12 536.433 1050.12 534.7C1048.12 532.967 1045.62 532.1 1042.62 532.1C1039.75 532.1 1037.32 532.933 1035.32 534.6C1033.38 536.267 1032.18 538.633 1031.72 541.7H1053.12ZM1132.24 546.2C1132.24 547.8 1132.14 549.467 1131.94 551.2H1093.24C1093.5 554.667 1094.6 557.333 1096.54 559.2C1098.54 561 1100.97 561.9 1103.84 561.9C1108.1 561.9 1111.07 560.1 1112.74 556.5H1130.94C1130 560.167 1128.3 563.467 1125.84 566.4C1123.44 569.333 1120.4 571.633 1116.74 573.3C1113.07 574.967 1108.97 575.8 1104.44 575.8C1098.97 575.8 1094.1 574.633 1089.84 572.3C1085.57 569.967 1082.24 566.633 1079.84 562.3C1077.44 557.967 1076.24 552.9 1076.24 547.1C1076.24 541.3 1077.4 536.233 1079.74 531.9C1082.14 527.567 1085.47 524.233 1089.74 521.9C1094 519.567 1098.9 518.4 1104.44 518.4C1109.84 518.4 1114.64 519.533 1118.84 521.8C1123.04 524.067 1126.3 527.3 1128.64 531.5C1131.04 535.7 1132.24 540.6 1132.24 546.2ZM1114.74 541.7C1114.74 538.767 1113.74 536.433 1111.74 534.7C1109.74 532.967 1107.24 532.1 1104.24 532.1C1101.37 532.1 1098.94 532.933 1096.94 534.6C1095 536.267 1093.8 538.633 1093.34 541.7H1114.74ZM1158.36 528.5C1160.36 525.433 1162.86 523.033 1165.86 521.3C1168.86 519.5 1172.19 518.6 1175.86 518.6V536.7H1171.16C1166.89 536.7 1163.69 537.633 1161.56 539.5C1159.43 541.3 1158.36 544.5 1158.36 549.1V575H1141.26V519.2H1158.36V528.5ZM1206.73 575.8C1201.87 575.8 1197.53 574.967 1193.73 573.3C1189.93 571.633 1186.93 569.367 1184.73 566.5C1182.53 563.567 1181.3 560.3 1181.03 556.7H1197.93C1198.13 558.633 1199.03 560.2 1200.63 561.4C1202.23 562.6 1204.2 563.2 1206.53 563.2C1208.67 563.2 1210.3 562.8 1211.43 562C1212.63 561.133 1213.23 560.033 1213.23 558.7C1213.23 557.1 1212.4 555.933 1210.73 555.2C1209.07 554.4 1206.37 553.533 1202.63 552.6C1198.63 551.667 1195.3 550.7 1192.63 549.7C1189.97 548.633 1187.67 547 1185.73 544.8C1183.8 542.533 1182.83 539.5 1182.83 535.7C1182.83 532.5 1183.7 529.6 1185.43 527C1187.23 524.333 1189.83 522.233 1193.23 520.7C1196.7 519.167 1200.8 518.4 1205.53 518.4C1212.53 518.4 1218.03 520.133 1222.03 523.6C1226.1 527.067 1228.43 531.667 1229.03 537.4H1213.23C1212.97 535.467 1212.1 533.933 1210.63 532.8C1209.23 531.667 1207.37 531.1 1205.03 531.1C1203.03 531.1 1201.5 531.5 1200.43 532.3C1199.37 533.033 1198.83 534.067 1198.83 535.4C1198.83 537 1199.67 538.2 1201.33 539C1203.07 539.8 1205.73 540.6 1209.33 541.4C1213.47 542.467 1216.83 543.533 1219.43 544.6C1222.03 545.6 1224.3 547.267 1226.23 549.6C1228.23 551.867 1229.27 554.933 1229.33 558.8C1229.33 562.067 1228.4 565 1226.53 567.6C1224.73 570.133 1222.1 572.133 1218.63 573.6C1215.23 575.067 1211.27 575.8 1206.73 575.8Z" fill="white"/>
<path d="M735.75 501.688C736.144 501.515 736.57 501.427 737 501.427C737.43 501.427 737.856 501.515 738.25 501.688C753.659 508.423 768.356 516.679 782.125 526.333C782.61 526.674 782.989 527.145 783.216 527.692C783.444 528.239 783.511 528.84 783.41 529.424C783.309 530.008 783.044 530.551 782.646 530.99C782.248 531.43 781.734 531.746 781.163 531.904C766.868 535.852 753.037 541.316 739.904 548.204L739.892 548.213C739.417 548.463 738.946 548.708 738.475 548.963C738.022 549.205 737.516 549.331 737.002 549.331C736.488 549.331 735.982 549.205 735.529 548.963C729.897 545.957 724.131 543.206 718.25 540.721V539.788C718.25 539.242 718.529 538.754 718.967 538.492C725.256 534.68 731.726 531.176 738.354 527.992C739.101 527.633 739.675 526.991 739.949 526.209C740.224 525.427 740.176 524.568 739.817 523.821C739.458 523.074 738.816 522.5 738.034 522.226C737.252 521.952 736.393 521.999 735.646 522.358C728.837 525.63 722.19 529.23 715.729 533.146C714.81 533.703 714.017 534.446 713.401 535.327C712.785 536.208 712.359 537.208 712.15 538.263C705.822 535.828 699.378 533.704 692.842 531.9C692.27 531.742 691.756 531.425 691.358 530.986C690.96 530.547 690.695 530.004 690.594 529.42C690.493 528.836 690.56 528.235 690.788 527.688C691.016 527.141 691.394 526.669 691.879 526.329C705.647 516.676 720.343 508.422 735.75 501.688Z" fill="white"/>
<path d="M741.417 554.471C751.651 549.003 762.338 544.428 773.358 540.796C773.917 546.687 774.275 552.642 774.421 558.646C774.437 559.275 774.263 559.895 773.921 560.423C773.579 560.952 773.085 561.365 772.504 561.608C760.693 566.541 749.384 572.6 738.733 579.7C738.22 580.042 737.617 580.225 737 580.225C736.383 580.225 735.78 580.042 735.267 579.7C724.618 572.6 713.31 566.542 701.5 561.608C700.919 561.366 700.425 560.954 700.082 560.426C699.74 559.898 699.564 559.279 699.579 558.65C699.725 552.642 700.083 546.692 700.642 540.792C704.479 542.058 708.267 543.433 712 544.917V550.208C711.1 550.727 710.343 551.462 709.798 552.347C709.253 553.231 708.938 554.238 708.88 555.275C708.822 556.313 709.024 557.348 709.467 558.288C709.909 559.228 710.58 560.043 711.417 560.658C711.042 562.242 710.492 563.796 709.763 565.283C711.646 566.171 713.517 567.092 715.371 568.033C716.416 565.907 717.187 563.657 717.667 561.337C718.72 560.869 719.624 560.118 720.277 559.168C720.931 558.218 721.309 557.105 721.369 555.954C721.429 554.802 721.17 553.656 720.619 552.643C720.069 551.63 719.249 550.789 718.25 550.212V547.525C723.117 549.651 727.899 551.968 732.583 554.471C733.942 555.197 735.459 555.576 737 555.576C738.541 555.576 740.058 555.197 741.417 554.471Z" fill="white"/>
<path d="M705.592 571.092C707.342 569.346 708.729 567.383 709.758 565.279C711.646 566.171 713.517 567.092 715.371 568.038C714.008 570.807 712.197 573.332 710.013 575.513C709.42 576.065 708.637 576.365 707.827 576.351C707.017 576.336 706.245 576.008 705.672 575.436C705.1 574.863 704.772 574.091 704.758 573.281C704.743 572.472 705.044 571.688 705.596 571.096L705.592 571.092Z" fill="white"/>
</g>
<defs>
<clipPath id="clip0_1_2">
<rect width="1920" height="1080" fill="white"/>
</clipPath>
</defs>
</svg>
