<svg width="1920" height="1080" viewBox="0 0 1920 1080" fill="none" xmlns="http://www.w3.org/2000/svg">
<g clip-path="url(#clip0_1_2)">
<rect width="1920" height="1080" fill="white"/>
<rect width="1920" height="1080" fill="#DC2626"/>
<g opacity="0.25">
<path opacity="0.306122" d="M319.253 1601.83C107.265 1480.13 -17.6733 1461.21 -249.625 1501.52C-513.969 1558.5 -677.991 1542.13 -941.817 1379.46C-1162.52 1243.39 -1376.5 1200.09 -1649.13 1254.75C-1962.49 1317.56 -2110.98 1327.32 -2392.51 1123.67" stroke="white" stroke-opacity="0.5" stroke-width="4"/>
<path opacity="0.326531" d="M333.143 1598.44C134.276 1459.19 12.402 1429.69 -220.535 1450.08C-486.979 1484.3 -647.728 1454.02 -894.233 1269.56C-1100.45 1115.25 -1308.22 1053.9 -1582.65 1085.1C-1898.08 1120.96 -2045.78 1118.03 -2306.17 891.234" stroke="white" stroke-opacity="0.5" stroke-width="4"/>
<path opacity="0.346939" d="M346.835 1595.79C162.523 1440.34 44.5958 1400.67 -187.631 1401.26C-454.234 1412.79 -610.544 1369.05 -837.951 1164.56C-1028.19 993.494 -1228.25 914.848 -1502.48 922.692C-1817.68 931.708 -1963.52 916.293 -2200.89 668.491" stroke="white" stroke-opacity="0.5" stroke-width="4"/>
<path opacity="0.367347" d="M360.264 1593.86C191.804 1423.69 78.6639 1374.3 -151.186 1355.37C-416.034 1344.43 -566.791 1287.77 -773.502 1065.18C-946.43 878.965 -1137.35 783.891 -1409.42 768.646C-1722.13 751.124 -1865.06 723.527 -2077.75 456.996" stroke="white" stroke-opacity="0.5" stroke-width="4"/>
<path opacity="0.387755" d="M373.368 1592.63C221.913 1409.31 114.348 1350.74 -111.502 1312.69C-372.72 1279.68 -516.87 1210.72 -701.476 972.07C-855.911 772.421 -1036.36 661.909 -1304.34 624.006C-1612.35 580.441 -1751.37 541.048 -1937.94 258.195" stroke="white" stroke-opacity="0.5" stroke-width="4"/>
<path opacity="0.408163" d="M386.088 1592.07C252.635 1397.25 151.381 1330.09 -68.8981 1273.48C-324.667 1218.93 -461.223 1138.4 -622.511 885.837C-757.439 674.551 -926.198 549.695 -1188.22 489.723C-1489.38 420.793 -1623.53 370.071 -1782.77 73.4133" stroke="white" stroke-opacity="0.5" stroke-width="4"/>
<path opacity="0.428571" d="M398.368 1592.13C283.757 1387.57 189.487 1312.45 -23.7163 1237.96C-272.282 1162.56 -400.331 1071.25 -537.295 807.015C-651.876 585.965 -807.823 447.955 -1062.1 366.655C-1354.35 273.21 -1482.72 211.704 -1613.65 -96.1573" stroke="white" stroke-opacity="0.5" stroke-width="4"/>
<path opacity="0.44898" d="M410.154 1592.78C315.059 1380.26 228.38 1297.9 23.6861 1206.31C-216 1110.9 -334.709 1009.67 -446.556 736.071C-540.124 507.187 -682.263 357.297 -927.073 255.555C-1208.45 138.613 -1330.19 66.9389 -1432.09 -249.462" stroke="white" stroke-opacity="0.5" stroke-width="4"/>
<path opacity="0.469388" d="M421.397 1593.98C346.323 1375.33 267.777 1286.48 72.939 1178.7C-156.281 1064.24 -264.903 954.015 -351.054 673.405C-423.126 438.657 -550.581 278.235 -784.311 157.069C-1052.96 17.803 -1167.26 -63.3562 -1239.66 -385.593" stroke="white" stroke-opacity="0.5" stroke-width="4"/>
<path opacity="0.489796" d="M432.052 1595.67C377.335 1372.75 307.389 1278.19 123.662 1155.24C-93.6045 1022.81 -191.481 904.578 -251.577 619.343C-301.851 380.724 -413.877 211.18 -635.015 71.7365C-889.188 -88.5383 -995.348 -178.44 -1038 -503.79" stroke="white" stroke-opacity="0.5" stroke-width="4"/>
<path opacity="0.510204" d="M442.078 1597.8C407.881 1372.5 346.928 1273.04 175.469 1136.02C-28.4662 986.825 -115.034 861.604 -148.933 574.136C-177.292 333.649 -273.275 156.441 -480.422 -0.0207362C-718.514 -179.855 -815.879 -277.705 -828.813 -603.452" stroke="white" stroke-opacity="0.5" stroke-width="4"/>
<path opacity="0.530612" d="M451.438 1600.31C437.755 1374.49 386.114 1270.98 227.969 1121.08C38.6266 956.426 -36.1632 825.283 -43.9425 537.962C-50.4504 297.599 -129.914 114.221 -321.795 -57.8936C-542.339 -255.719 -630.335 -360.675 -613.813 -684.13" stroke="white" stroke-opacity="0.5" stroke-width="4"/>
<path opacity="0.55102" d="M460.103 1603.15C466.758 1378.66 424.667 1271.95 280.771 1110.44C107.158 931.722 44.5156 795.747 62.5654 510.924C77.6653 272.65 15.0606 84.6215 -160.407 -101.689C-362.088 -315.832 -440.222 -427.013 -394.749 -745.538" stroke="white" stroke-opacity="0.5" stroke-width="4"/>
<path opacity="0.571429" d="M468.045 1606.25C494.699 1384.9 462.319 1275.87 333.489 1104.08C176.612 912.769 126.385 773.073 169.764 493.048C206.053 258.787 160.509 67.6396 2.46224 -131.331C-179.194 -360.025 -247.053 -476.518 -173.37 -787.545" stroke="white" stroke-opacity="0.5" stroke-width="4"/>
<path opacity="0.591837" d="M475.246 1609.55C521.397 1393.11 498.812 1282.63 385.74 1101.94C246.468 899.581 208.828 757.284 276.832 484.287C333.722 255.907 305.303 63.1699 165.545 -146.856C4.90889 -388.257 -52.3453 -509.126 48.583 -810.179" stroke="white" stroke-opacity="0.5" stroke-width="4"/>
<path opacity="0.612245" d="M481.691 1612.98C546.685 1403.15 533.899 1292.09 437.154 1103.93C316.216 892.122 291.232 748.346 382.963 484.522C459.703 263.815 448.336 71.0076 327.589 -148.415C188.803 -400.617 142.398 -524.909 269.39 -813.624" stroke="white" stroke-opacity="0.5" stroke-width="4"/>
<path opacity="0.632653" d="M487.37 1616.48C570.405 1414.88 567.347 1304.1 487.37 1109.92C385.353 890.313 372.994 746.17 487.37 493.561C583.054 282.237 588.534 90.8508 487.37 -136.269C371.094 -397.316 335.698 -524.068 487.37 -798.211" stroke="white" stroke-opacity="0.5" stroke-width="4"/>
<path opacity="0.653061" d="M492.282 1619.98C592.417 1428.14 598.942 1318.49 536.044 1119.78C453.387 894.03 453.528 750.619 589.292 511.147C702.868 310.813 724.862 122.305 643.704 -110.782C550.422 -378.69 526.111 -506.936 700.89 -764.422" stroke="white" stroke-opacity="0.5" stroke-width="4"/>
<path opacity="0.673469" d="M496.428 1623.41C612.595 1442.78 628.483 1335.06 582.847 1133.31C519.846 903.109 532.266 761.501 688 536.955C818.282 349.108 856.33 164.888 795.45 -72.4243C725.475 -345.187 712.241 -473.97 908.379 -712.874" stroke="white" stroke-opacity="0.5" stroke-width="4"/>
<path opacity="0.693878" d="M499.818 1626.71C630.829 1458.6 655.793 1353.62 627.474 1150.29C584.277 917.343 608.664 778.578 782.803 570.6C928.481 396.613 982.006 218.032 941.525 -21.759C894.997 -297.371 892.749 -425.742 1108.34 -644.321" stroke="white" stroke-opacity="0.5" stroke-width="4"/>
<path opacity="0.714286" d="M502.466 1629.82C647.026 1475.42 680.712 1373.93 669.639 1170.51C646.25 936.49 682.206 801.567 873.051 611.64C1032.71 452.753 1101.02 281.094 1080.91 40.5599C1057.79 -235.907 1066.36 -362.941 1299.36 -559.638" stroke="white" stroke-opacity="0.5" stroke-width="4"/>
<path opacity="0.734694" d="M504.392 1632.65C661.112 1493.04 703.104 1395.76 709.083 1193.69C705.365 960.272 752.409 830.141 958.144 659.578C1130.26 516.891 1212.56 353.361 1212.65 113.795C1212.75 -161.559 1231.89 -286.355 1480.13 -459.817" stroke="white" stroke-opacity="0.5" stroke-width="4"/>
<path opacity="0.755102" d="M505.622 1635.17C673.029 1511.28 722.855 1418.86 745.57 1219.56C761.247 988.376 818.822 863.936 1037.53 713.873C1220.5 588.334 1315.9 434.053 1335.87 197.132C1358.83 -75.1819 1388.21 -196.872 1649.42 -345.956" stroke="white" stroke-opacity="0.5" stroke-width="4"/>
<path opacity="0.77551" d="M506.187 1637.3C682.741 1529.92 739.874 1442.99 778.896 1247.83C813.557 1020.46 881.034 902.551 1110.72 773.936C1302.87 666.34 1410.39 522.336 1449.79 289.689C1495.08 22.288 1534.32 -95.4673 1806.15 -219.248" stroke="white" stroke-opacity="0.5" stroke-width="4"/>
<path opacity="0.795918" d="M506.124 1638.99C690.227 1548.76 754.094 1467.89 808.882 1278.17C861.99 1056.17 938.673 945.555 1177.27 839.144C1376.87 750.125 1495.46 617.326 1553.71 390.525C1620.66 129.843 1669.3 16.8073 1949.34 -80.9686" stroke="white" stroke-opacity="0.5" stroke-width="4"/>
<path opacity="0.816327" d="M505.471 1640.18C695.487 1567.59 765.473 1493.28 835.383 1310.27C906.275 1095.1 991.413 992.486 1236.81 908.843C1442.1 838.869 1570.62 718.098 1647.01 498.645C1734.8 246.41 1792.33 138.83 2078.12 67.5336" stroke="white" stroke-opacity="0.5" stroke-width="4"/>
<path opacity="0.836735" d="M504.276 1640.83C698.54 1586.22 773.992 1518.92 858.282 1343.79C946.181 1136.86 1038.97 1042.86 1289.03 982.35C1498.21 931.727 1635.49 823.696 1729.18 613.016C1836.87 370.864 1902.7 269.422 2191.78 224.851" stroke="white" stroke-opacity="0.5" stroke-width="4"/>
<path opacity="0.857143" d="M502.587 1640.9C699.423 1604.44 779.657 1544.52 877.495 1378.38C981.517 1181.01 1081.11 1096.18 1333.67 1058.97C1544.96 1027.83 1689.75 933.137 1799.82 732.567C1926.33 502.036 1999.84 407.355 2289.73 389.528" stroke="white" stroke-opacity="0.5" stroke-width="4"/>
<path opacity="0.877551" d="M500.457 1640.33C698.19 1622.05 782.5 1569.84 892.97 1413.71C1012.13 1227.12 1117.64 1151.93 1370.57 1137.97C1582.16 1126.3 1733.2 1045.42 1858.6 856.207C2002.74 638.724 2083.26 551.366 2371.52 560.075" stroke="white" stroke-opacity="0.5" stroke-width="4"/>
<path opacity="0.897959" d="M497.943 1639.1C694.915 1638.87 782.573 1594.62 904.687 1449.43C1037.91 1274.75 1148.43 1209.58 1399.6 1218.65C1609.72 1226.25 1765.71 1159.55 1905.33 982.829C2065.8 779.703 2152.61 700.165 2436.84 734.981" stroke="white" stroke-opacity="0.5" stroke-width="4"/>
<path opacity="0.918367" d="M495.105 1637.18C689.685 1654.72 779.953 1618.61 912.656 1485.2C1058.79 1323.45 1173.38 1268.59 1420.72 1300.28C1627.64 1326.79 1787.27 1274.52 1939.88 1111.32C2115.29 923.736 2207.67 852.448 2485.52 912.725" stroke="white" stroke-opacity="0.5" stroke-width="4"/>
<path opacity="0.938776" d="M492.004 1634.53C682.607 1669.42 774.74 1641.57 916.92 1520.67C1074.73 1372.77 1192.44 1328.43 1433.94 1382.14C1635.97 1427.06 1797.93 1389.34 1962.26 1240.57C2151.14 1069.58 2248.31 1006.91 2517.52 1091.79" stroke="white" stroke-opacity="0.5" stroke-width="4"/>
</g>
<path d="M849.5 504.8C856.9 504.8 863.367 506.267 868.9 509.2C874.433 512.133 878.7 516.267 881.7 521.6C884.767 526.867 886.3 532.967 886.3 539.9C886.3 546.767 884.767 552.867 881.7 558.2C878.7 563.533 874.4 567.667 868.8 570.6C863.267 573.533 856.833 575 849.5 575H823.2V504.8H849.5ZM848.4 560.2C854.867 560.2 859.9 558.433 863.5 554.9C867.1 551.367 868.9 546.367 868.9 539.9C868.9 533.433 867.1 528.4 863.5 524.8C859.9 521.2 854.867 519.4 848.4 519.4H840.3V560.2H848.4ZM948.456 546.2C948.456 547.8 948.356 549.467 948.156 551.2H909.456C909.723 554.667 910.823 557.333 912.756 559.2C914.756 561 917.19 561.9 920.056 561.9C924.323 561.9 927.29 560.1 928.956 556.5H947.156C946.223 560.167 944.523 563.467 942.056 566.4C939.656 569.333 936.623 571.633 932.956 573.3C929.29 574.967 925.19 575.8 920.656 575.8C915.19 575.8 910.323 574.633 906.056 572.3C901.79 569.967 898.456 566.633 896.056 562.3C893.656 557.967 892.456 552.9 892.456 547.1C892.456 541.3 893.623 536.233 895.956 531.9C898.356 527.567 901.69 524.233 905.956 521.9C910.223 519.567 915.123 518.4 920.656 518.4C926.056 518.4 930.856 519.533 935.056 521.8C939.256 524.067 942.523 527.3 944.856 531.5C947.256 535.7 948.456 540.6 948.456 546.2ZM930.956 541.7C930.956 538.767 929.956 536.433 927.956 534.7C925.956 532.967 923.456 532.1 920.456 532.1C917.59 532.1 915.156 532.933 913.156 534.6C911.223 536.267 910.023 538.633 909.556 541.7H930.956ZM974.577 501V575H957.477V501H974.577ZM995.57 513.4C992.57 513.4 990.103 512.533 988.17 510.8C986.303 509 985.37 506.8 985.37 504.2C985.37 501.533 986.303 499.333 988.17 497.6C990.103 495.8 992.57 494.9 995.57 494.9C998.503 494.9 1000.9 495.8 1002.77 497.6C1004.7 499.333 1005.67 501.533 1005.67 504.2C1005.67 506.8 1004.7 509 1002.77 510.8C1000.9 512.533 998.503 513.4 995.57 513.4ZM1004.07 519.2V575H986.97V519.2H1004.07ZM1041.56 559L1053.66 519.2H1071.86L1052.06 575H1030.96L1011.16 519.2H1029.46L1041.56 559ZM1131.66 546.2C1131.66 547.8 1131.56 549.467 1131.36 551.2H1092.66C1092.93 554.667 1094.03 557.333 1095.96 559.2C1097.96 561 1100.39 561.9 1103.26 561.9C1107.53 561.9 1110.49 560.1 1112.16 556.5H1130.36C1129.43 560.167 1127.73 563.467 1125.26 566.4C1122.86 569.333 1119.83 571.633 1116.16 573.3C1112.49 574.967 1108.39 575.8 1103.86 575.8C1098.39 575.8 1093.53 574.633 1089.26 572.3C1084.99 569.967 1081.66 566.633 1079.26 562.3C1076.86 557.967 1075.66 552.9 1075.66 547.1C1075.66 541.3 1076.83 536.233 1079.16 531.9C1081.56 527.567 1084.89 524.233 1089.16 521.9C1093.43 519.567 1098.33 518.4 1103.86 518.4C1109.26 518.4 1114.06 519.533 1118.26 521.8C1122.46 524.067 1125.73 527.3 1128.06 531.5C1130.46 535.7 1131.66 540.6 1131.66 546.2ZM1114.16 541.7C1114.16 538.767 1113.16 536.433 1111.16 534.7C1109.16 532.967 1106.66 532.1 1103.66 532.1C1100.79 532.1 1098.36 532.933 1096.36 534.6C1094.43 536.267 1093.23 538.633 1092.76 541.7H1114.16ZM1157.78 528.5C1159.78 525.433 1162.28 523.033 1165.28 521.3C1168.28 519.5 1171.61 518.6 1175.28 518.6V536.7H1170.58C1166.31 536.7 1163.11 537.633 1160.98 539.5C1158.85 541.3 1157.78 544.5 1157.78 549.1V575H1140.68V519.2H1157.78V528.5ZM1240.45 519.2L1205.45 601.5H1187.05L1199.85 573.1L1177.15 519.2H1196.25L1209.15 554.1L1221.95 519.2H1240.45Z" fill="white"/>
<path d="M693.062 508.75C688.746 508.75 685.25 512.25 685.25 516.563V546.25H735.25V516.563C735.25 512.246 731.75 508.75 727.438 508.75H693.062ZM735.25 552.5H685.25V563.438C685.25 567.75 688.75 571.25 693.062 571.25H694.625C694.625 567.935 695.942 564.755 698.286 562.411C700.63 560.067 703.81 558.75 707.125 558.75C710.44 558.75 713.62 560.067 715.964 562.411C718.308 564.755 719.625 567.935 719.625 571.25H732.125C732.954 571.25 733.749 570.921 734.335 570.335C734.921 569.749 735.25 568.954 735.25 568.125V552.5Z" fill="white"/>
<path d="M713.375 571.25C713.375 569.592 712.717 568.003 711.544 566.831C710.372 565.658 708.783 565 707.125 565C705.467 565 703.878 565.658 702.706 566.831C701.533 568.003 700.875 569.592 700.875 571.25C700.875 572.908 701.533 574.497 702.706 575.669C703.878 576.841 705.467 577.5 707.125 577.5C708.783 577.5 710.372 576.841 711.544 575.669C712.717 574.497 713.375 572.908 713.375 571.25ZM744.625 518.125C743.796 518.125 743.001 518.454 742.415 519.04C741.829 519.626 741.5 520.421 741.5 521.25V568.125C741.5 568.487 741.562 568.833 741.675 569.158C742.194 566.08 743.847 563.307 746.308 561.386C748.768 559.464 751.859 558.533 754.971 558.775C758.084 559.018 760.993 560.416 763.127 562.695C765.26 564.975 766.464 567.97 766.5 571.092C770.054 570.362 772.842 567.196 772.6 563.246C771.668 547.989 766.259 533.345 757.05 521.146C756.333 520.202 755.406 519.439 754.343 518.914C753.28 518.39 752.11 518.12 750.925 518.125H744.625Z" fill="white"/>
<path d="M760.25 571.25C760.25 569.592 759.592 568.003 758.419 566.831C757.247 565.658 755.658 565 754 565C752.342 565 750.753 565.658 749.581 566.831C748.408 568.003 747.75 569.592 747.75 571.25C747.75 572.908 748.408 574.497 749.581 575.669C750.753 576.842 752.342 577.5 754 577.5C755.658 577.5 757.247 576.842 758.419 575.669C759.592 574.497 760.25 572.908 760.25 571.25Z" fill="white"/>
</g>
<defs>
<clipPath id="clip0_1_2">
<rect width="1920" height="1080" fill="white"/>
</clipPath>
</defs>
</svg>
