<svg width="1920" height="1080" viewBox="0 0 1920 1080" fill="none" xmlns="http://www.w3.org/2000/svg">
<g clip-path="url(#clip0_1_2)">
<rect width="1920" height="1080" fill="white"/>
<rect width="1920" height="1080" fill="#DC2626"/>
<g opacity="0.25">
<path opacity="0.306122" d="M319.253 1601.83C107.265 1480.13 -17.6733 1461.21 -249.625 1501.52C-513.969 1558.5 -677.991 1542.13 -941.817 1379.46C-1162.52 1243.39 -1376.5 1200.09 -1649.13 1254.75C-1962.49 1317.56 -2110.98 1327.32 -2392.51 1123.67" stroke="white" stroke-opacity="0.5" stroke-width="4"/>
<path opacity="0.326531" d="M333.143 1598.44C134.276 1459.19 12.402 1429.69 -220.535 1450.08C-486.979 1484.3 -647.728 1454.02 -894.233 1269.56C-1100.45 1115.25 -1308.22 1053.9 -1582.65 1085.1C-1898.08 1120.96 -2045.78 1118.03 -2306.17 891.234" stroke="white" stroke-opacity="0.5" stroke-width="4"/>
<path opacity="0.346939" d="M346.835 1595.79C162.523 1440.34 44.5958 1400.67 -187.631 1401.26C-454.234 1412.79 -610.544 1369.05 -837.951 1164.56C-1028.19 993.494 -1228.25 914.848 -1502.48 922.692C-1817.68 931.708 -1963.52 916.293 -2200.89 668.491" stroke="white" stroke-opacity="0.5" stroke-width="4"/>
<path opacity="0.367347" d="M360.264 1593.86C191.804 1423.69 78.6639 1374.3 -151.186 1355.37C-416.034 1344.43 -566.791 1287.77 -773.502 1065.18C-946.43 878.965 -1137.35 783.891 -1409.42 768.646C-1722.13 751.124 -1865.06 723.527 -2077.75 456.996" stroke="white" stroke-opacity="0.5" stroke-width="4"/>
<path opacity="0.387755" d="M373.368 1592.63C221.913 1409.31 114.348 1350.74 -111.502 1312.69C-372.72 1279.68 -516.87 1210.72 -701.476 972.07C-855.911 772.421 -1036.36 661.909 -1304.34 624.006C-1612.35 580.441 -1751.37 541.048 -1937.94 258.195" stroke="white" stroke-opacity="0.5" stroke-width="4"/>
<path opacity="0.408163" d="M386.088 1592.07C252.635 1397.25 151.381 1330.09 -68.8981 1273.48C-324.667 1218.93 -461.223 1138.4 -622.511 885.837C-757.439 674.551 -926.198 549.695 -1188.22 489.723C-1489.38 420.793 -1623.53 370.071 -1782.77 73.4133" stroke="white" stroke-opacity="0.5" stroke-width="4"/>
<path opacity="0.428571" d="M398.368 1592.13C283.757 1387.57 189.487 1312.45 -23.7163 1237.96C-272.282 1162.56 -400.331 1071.25 -537.295 807.015C-651.876 585.965 -807.823 447.955 -1062.1 366.655C-1354.35 273.21 -1482.72 211.704 -1613.65 -96.1573" stroke="white" stroke-opacity="0.5" stroke-width="4"/>
<path opacity="0.44898" d="M410.154 1592.78C315.059 1380.26 228.38 1297.9 23.6861 1206.31C-216 1110.9 -334.709 1009.67 -446.556 736.071C-540.124 507.187 -682.263 357.297 -927.073 255.555C-1208.45 138.613 -1330.19 66.9389 -1432.09 -249.462" stroke="white" stroke-opacity="0.5" stroke-width="4"/>
<path opacity="0.469388" d="M421.397 1593.98C346.323 1375.33 267.777 1286.48 72.939 1178.7C-156.281 1064.24 -264.903 954.015 -351.054 673.405C-423.126 438.657 -550.581 278.235 -784.311 157.069C-1052.96 17.803 -1167.26 -63.3562 -1239.66 -385.593" stroke="white" stroke-opacity="0.5" stroke-width="4"/>
<path opacity="0.489796" d="M432.052 1595.67C377.335 1372.75 307.389 1278.19 123.662 1155.24C-93.6045 1022.81 -191.481 904.578 -251.577 619.343C-301.851 380.724 -413.877 211.18 -635.015 71.7365C-889.188 -88.5383 -995.348 -178.44 -1038 -503.79" stroke="white" stroke-opacity="0.5" stroke-width="4"/>
<path opacity="0.510204" d="M442.078 1597.8C407.881 1372.5 346.928 1273.04 175.469 1136.02C-28.4662 986.825 -115.034 861.604 -148.933 574.136C-177.292 333.649 -273.275 156.441 -480.422 -0.0207362C-718.514 -179.855 -815.879 -277.705 -828.813 -603.452" stroke="white" stroke-opacity="0.5" stroke-width="4"/>
<path opacity="0.530612" d="M451.438 1600.31C437.755 1374.49 386.114 1270.98 227.969 1121.08C38.6266 956.426 -36.1632 825.283 -43.9425 537.962C-50.4504 297.599 -129.914 114.221 -321.795 -57.8936C-542.339 -255.719 -630.335 -360.675 -613.813 -684.13" stroke="white" stroke-opacity="0.5" stroke-width="4"/>
<path opacity="0.55102" d="M460.103 1603.15C466.758 1378.66 424.667 1271.95 280.771 1110.44C107.158 931.722 44.5156 795.747 62.5654 510.924C77.6653 272.65 15.0606 84.6215 -160.407 -101.689C-362.088 -315.832 -440.222 -427.013 -394.749 -745.538" stroke="white" stroke-opacity="0.5" stroke-width="4"/>
<path opacity="0.571429" d="M468.045 1606.25C494.699 1384.9 462.319 1275.87 333.489 1104.08C176.612 912.769 126.385 773.073 169.764 493.048C206.053 258.787 160.509 67.6396 2.46224 -131.331C-179.194 -360.025 -247.053 -476.518 -173.37 -787.545" stroke="white" stroke-opacity="0.5" stroke-width="4"/>
<path opacity="0.591837" d="M475.246 1609.55C521.397 1393.11 498.812 1282.63 385.74 1101.94C246.468 899.581 208.828 757.284 276.832 484.287C333.722 255.907 305.303 63.1699 165.545 -146.856C4.90889 -388.257 -52.3453 -509.126 48.583 -810.179" stroke="white" stroke-opacity="0.5" stroke-width="4"/>
<path opacity="0.612245" d="M481.691 1612.98C546.685 1403.15 533.899 1292.09 437.154 1103.93C316.216 892.122 291.232 748.346 382.963 484.522C459.703 263.815 448.336 71.0076 327.589 -148.415C188.803 -400.617 142.398 -524.909 269.39 -813.624" stroke="white" stroke-opacity="0.5" stroke-width="4"/>
<path opacity="0.632653" d="M487.37 1616.48C570.405 1414.88 567.347 1304.1 487.37 1109.92C385.353 890.313 372.994 746.17 487.37 493.561C583.054 282.237 588.534 90.8508 487.37 -136.269C371.094 -397.316 335.698 -524.068 487.37 -798.211" stroke="white" stroke-opacity="0.5" stroke-width="4"/>
<path opacity="0.653061" d="M492.282 1619.98C592.417 1428.14 598.942 1318.49 536.044 1119.78C453.387 894.03 453.528 750.619 589.292 511.147C702.868 310.813 724.862 122.305 643.704 -110.782C550.422 -378.69 526.111 -506.936 700.89 -764.422" stroke="white" stroke-opacity="0.5" stroke-width="4"/>
<path opacity="0.673469" d="M496.428 1623.41C612.595 1442.78 628.483 1335.06 582.847 1133.31C519.846 903.109 532.266 761.501 688 536.955C818.282 349.108 856.33 164.888 795.45 -72.4243C725.475 -345.187 712.241 -473.97 908.379 -712.874" stroke="white" stroke-opacity="0.5" stroke-width="4"/>
<path opacity="0.693878" d="M499.818 1626.71C630.829 1458.6 655.793 1353.62 627.474 1150.29C584.277 917.343 608.664 778.578 782.803 570.6C928.481 396.613 982.006 218.032 941.525 -21.759C894.997 -297.371 892.749 -425.742 1108.34 -644.321" stroke="white" stroke-opacity="0.5" stroke-width="4"/>
<path opacity="0.714286" d="M502.466 1629.82C647.026 1475.42 680.712 1373.93 669.639 1170.51C646.25 936.49 682.206 801.567 873.051 611.64C1032.71 452.753 1101.02 281.094 1080.91 40.5599C1057.79 -235.907 1066.36 -362.941 1299.36 -559.638" stroke="white" stroke-opacity="0.5" stroke-width="4"/>
<path opacity="0.734694" d="M504.392 1632.65C661.112 1493.04 703.104 1395.76 709.083 1193.69C705.365 960.272 752.409 830.141 958.144 659.578C1130.26 516.891 1212.56 353.361 1212.65 113.795C1212.75 -161.559 1231.89 -286.355 1480.13 -459.817" stroke="white" stroke-opacity="0.5" stroke-width="4"/>
<path opacity="0.755102" d="M505.622 1635.17C673.029 1511.28 722.855 1418.86 745.57 1219.56C761.247 988.376 818.822 863.936 1037.53 713.873C1220.5 588.334 1315.9 434.053 1335.87 197.132C1358.83 -75.1819 1388.21 -196.872 1649.42 -345.956" stroke="white" stroke-opacity="0.5" stroke-width="4"/>
<path opacity="0.77551" d="M506.187 1637.3C682.741 1529.92 739.874 1442.99 778.896 1247.83C813.557 1020.46 881.034 902.551 1110.72 773.936C1302.87 666.34 1410.39 522.336 1449.79 289.689C1495.08 22.288 1534.32 -95.4673 1806.15 -219.248" stroke="white" stroke-opacity="0.5" stroke-width="4"/>
<path opacity="0.795918" d="M506.124 1638.99C690.227 1548.76 754.094 1467.89 808.882 1278.17C861.99 1056.17 938.673 945.555 1177.27 839.144C1376.87 750.125 1495.46 617.326 1553.71 390.525C1620.66 129.843 1669.3 16.8073 1949.34 -80.9686" stroke="white" stroke-opacity="0.5" stroke-width="4"/>
<path opacity="0.816327" d="M505.471 1640.18C695.487 1567.59 765.473 1493.28 835.383 1310.27C906.275 1095.1 991.413 992.486 1236.81 908.843C1442.1 838.869 1570.62 718.098 1647.01 498.645C1734.8 246.41 1792.33 138.83 2078.12 67.5336" stroke="white" stroke-opacity="0.5" stroke-width="4"/>
<path opacity="0.836735" d="M504.276 1640.83C698.54 1586.22 773.992 1518.92 858.282 1343.79C946.181 1136.86 1038.97 1042.86 1289.03 982.35C1498.21 931.727 1635.49 823.696 1729.18 613.016C1836.87 370.864 1902.7 269.422 2191.78 224.851" stroke="white" stroke-opacity="0.5" stroke-width="4"/>
<path opacity="0.857143" d="M502.587 1640.9C699.423 1604.44 779.657 1544.52 877.495 1378.38C981.517 1181.01 1081.11 1096.18 1333.67 1058.97C1544.96 1027.83 1689.75 933.137 1799.82 732.567C1926.33 502.036 1999.84 407.355 2289.73 389.528" stroke="white" stroke-opacity="0.5" stroke-width="4"/>
<path opacity="0.877551" d="M500.457 1640.33C698.19 1622.05 782.5 1569.84 892.97 1413.71C1012.13 1227.12 1117.64 1151.93 1370.57 1137.97C1582.16 1126.3 1733.2 1045.42 1858.6 856.207C2002.74 638.724 2083.26 551.366 2371.52 560.075" stroke="white" stroke-opacity="0.5" stroke-width="4"/>
<path opacity="0.897959" d="M497.943 1639.1C694.915 1638.87 782.573 1594.62 904.687 1449.43C1037.91 1274.75 1148.43 1209.58 1399.6 1218.65C1609.72 1226.25 1765.71 1159.55 1905.33 982.829C2065.8 779.703 2152.61 700.165 2436.84 734.981" stroke="white" stroke-opacity="0.5" stroke-width="4"/>
<path opacity="0.918367" d="M495.105 1637.18C689.685 1654.72 779.953 1618.61 912.656 1485.2C1058.79 1323.45 1173.38 1268.59 1420.72 1300.28C1627.64 1326.79 1787.27 1274.52 1939.88 1111.32C2115.29 923.736 2207.67 852.448 2485.52 912.725" stroke="white" stroke-opacity="0.5" stroke-width="4"/>
<path opacity="0.938776" d="M492.004 1634.53C682.607 1669.42 774.74 1641.57 916.92 1520.67C1074.73 1372.77 1192.44 1328.43 1433.94 1382.14C1635.97 1427.06 1797.93 1389.34 1962.26 1240.57C2151.14 1069.58 2248.31 1006.91 2517.52 1091.79" stroke="white" stroke-opacity="0.5" stroke-width="4"/>
</g>
<path d="M892.7 527.4C892.7 531.467 891.767 535.2 889.9 538.6C888.033 541.933 885.167 544.633 881.3 546.7C877.433 548.767 872.633 549.8 866.9 549.8H856.3V575H839.2V504.8H866.9C872.5 504.8 877.233 505.767 881.1 507.7C884.967 509.633 887.867 512.3 889.8 515.7C891.733 519.1 892.7 523 892.7 527.4ZM865.6 536.2C868.867 536.2 871.3 535.433 872.9 533.9C874.5 532.367 875.3 530.2 875.3 527.4C875.3 524.6 874.5 522.433 872.9 520.9C871.3 519.367 868.867 518.6 865.6 518.6H856.3V536.2H865.6ZM918.702 528.5C920.702 525.433 923.202 523.033 926.202 521.3C929.202 519.5 932.536 518.6 936.202 518.6V536.7H931.502C927.236 536.7 924.036 537.633 921.902 539.5C919.769 541.3 918.702 544.5 918.702 549.1V575H901.602V519.2H918.702V528.5ZM952.976 513.4C949.976 513.4 947.509 512.533 945.576 510.8C943.709 509 942.776 506.8 942.776 504.2C942.776 501.533 943.709 499.333 945.576 497.6C947.509 495.8 949.976 494.9 952.976 494.9C955.909 494.9 958.309 495.8 960.176 497.6C962.109 499.333 963.076 501.533 963.076 504.2C963.076 506.8 962.109 509 960.176 510.8C958.309 512.533 955.909 513.4 952.976 513.4ZM961.476 519.2V575H944.376V519.2H961.476ZM998.968 559L1011.07 519.2H1029.27L1009.47 575H988.368L968.568 519.2H986.868L998.968 559ZM1033.07 547C1033.07 541.267 1034.13 536.233 1036.27 531.9C1038.47 527.567 1041.43 524.233 1045.17 521.9C1048.9 519.567 1053.07 518.4 1057.67 518.4C1061.6 518.4 1065.03 519.2 1067.97 520.8C1070.97 522.4 1073.27 524.5 1074.87 527.1V519.2H1091.97V575H1074.87V567.1C1073.2 569.7 1070.87 571.8 1067.87 573.4C1064.93 575 1061.5 575.8 1057.57 575.8C1053.03 575.8 1048.9 574.633 1045.17 572.3C1041.43 569.9 1038.47 566.533 1036.27 562.2C1034.13 557.8 1033.07 552.733 1033.07 547ZM1074.87 547.1C1074.87 542.833 1073.67 539.467 1071.27 537C1068.93 534.533 1066.07 533.3 1062.67 533.3C1059.27 533.3 1056.37 534.533 1053.97 537C1051.63 539.4 1050.47 542.733 1050.47 547C1050.47 551.267 1051.63 554.667 1053.97 557.2C1056.37 559.667 1059.27 560.9 1062.67 560.9C1066.07 560.9 1068.93 559.667 1071.27 557.2C1073.67 554.733 1074.87 551.367 1074.87 547.1ZM1100.94 547.1C1100.94 541.3 1102.1 536.233 1104.44 531.9C1106.84 527.567 1110.14 524.233 1114.34 521.9C1118.6 519.567 1123.47 518.4 1128.94 518.4C1135.94 518.4 1141.77 520.233 1146.44 523.9C1151.17 527.567 1154.27 532.733 1155.74 539.4H1137.54C1136 535.133 1133.04 533 1128.64 533C1125.5 533 1123 534.233 1121.14 536.7C1119.27 539.1 1118.34 542.567 1118.34 547.1C1118.34 551.633 1119.27 555.133 1121.14 557.6C1123 560 1125.5 561.2 1128.64 561.2C1133.04 561.2 1136 559.067 1137.54 554.8H1155.74C1154.27 561.333 1151.17 566.467 1146.44 570.2C1141.7 573.933 1135.87 575.8 1128.94 575.8C1123.47 575.8 1118.6 574.633 1114.34 572.3C1110.14 569.967 1106.84 566.633 1104.44 562.3C1102.1 557.967 1100.94 552.9 1100.94 547.1ZM1221.88 519.2L1186.88 601.5H1168.48L1181.28 573.1L1158.58 519.2H1177.68L1190.58 554.1L1203.38 519.2H1221.88Z" fill="white"/>
<path d="M744.875 508.888C738.346 504.706 730.753 502.489 723 502.5C718.387 502.495 713.808 503.277 709.458 504.813C708.849 505.028 708.322 505.427 707.949 505.954C707.575 506.482 707.375 507.112 707.375 507.758V567.133C707.375 567.633 707.495 568.126 707.725 568.57C707.955 569.014 708.288 569.396 708.696 569.685C709.104 569.973 709.576 570.16 710.071 570.228C710.566 570.297 711.07 570.246 711.542 570.079C715.222 568.781 719.097 568.12 723 568.125C731.312 568.125 738.929 571.071 744.875 575.983V508.888ZM751.125 575.983C757.277 570.892 765.015 568.112 773 568.125C777.025 568.125 780.875 568.817 784.458 570.083C784.93 570.25 785.435 570.301 785.93 570.232C786.426 570.163 786.897 569.977 787.306 569.688C787.714 569.399 788.047 569.016 788.277 568.571C788.506 568.127 788.626 567.634 788.625 567.133V507.758C788.625 507.112 788.425 506.482 788.051 505.954C787.678 505.427 787.151 505.028 786.542 504.813C782.192 503.277 777.613 502.495 773 502.5C765.247 502.489 757.654 504.706 751.125 508.888V575.983Z" fill="white"/>
</g>
<defs>
<clipPath id="clip0_1_2">
<rect width="1920" height="1080" fill="white"/>
</clipPath>
</defs>
</svg>
