<svg width="1920" height="1080" viewBox="0 0 1920 1080" fill="none" xmlns="http://www.w3.org/2000/svg">
<g clip-path="url(#clip0_1_2)">
<rect width="1920" height="1080" fill="white"/>
<rect width="1920" height="1080" fill="#DC2626"/>
<g opacity="0.25">
<path opacity="0.306122" d="M319.253 1601.83C107.265 1480.13 -17.6733 1461.21 -249.625 1501.52C-513.969 1558.5 -677.991 1542.13 -941.817 1379.46C-1162.52 1243.39 -1376.5 1200.09 -1649.13 1254.75C-1962.49 1317.56 -2110.98 1327.32 -2392.51 1123.67" stroke="white" stroke-opacity="0.5" stroke-width="4"/>
<path opacity="0.326531" d="M333.143 1598.44C134.276 1459.19 12.402 1429.69 -220.535 1450.08C-486.979 1484.3 -647.728 1454.02 -894.233 1269.56C-1100.45 1115.25 -1308.22 1053.9 -1582.65 1085.1C-1898.08 1120.96 -2045.78 1118.03 -2306.17 891.234" stroke="white" stroke-opacity="0.5" stroke-width="4"/>
<path opacity="0.346939" d="M346.835 1595.79C162.523 1440.34 44.5958 1400.67 -187.631 1401.26C-454.234 1412.79 -610.544 1369.05 -837.951 1164.56C-1028.19 993.494 -1228.25 914.848 -1502.48 922.692C-1817.68 931.708 -1963.52 916.293 -2200.89 668.491" stroke="white" stroke-opacity="0.5" stroke-width="4"/>
<path opacity="0.367347" d="M360.264 1593.86C191.804 1423.69 78.6639 1374.3 -151.186 1355.37C-416.034 1344.43 -566.791 1287.77 -773.502 1065.18C-946.43 878.965 -1137.35 783.891 -1409.42 768.646C-1722.13 751.124 -1865.06 723.527 -2077.75 456.996" stroke="white" stroke-opacity="0.5" stroke-width="4"/>
<path opacity="0.387755" d="M373.368 1592.63C221.913 1409.31 114.348 1350.74 -111.502 1312.69C-372.72 1279.68 -516.87 1210.72 -701.476 972.07C-855.911 772.421 -1036.36 661.909 -1304.34 624.006C-1612.35 580.441 -1751.37 541.048 -1937.94 258.195" stroke="white" stroke-opacity="0.5" stroke-width="4"/>
<path opacity="0.408163" d="M386.088 1592.07C252.635 1397.25 151.381 1330.09 -68.8981 1273.48C-324.667 1218.93 -461.223 1138.4 -622.511 885.837C-757.439 674.551 -926.198 549.695 -1188.22 489.723C-1489.38 420.793 -1623.53 370.071 -1782.77 73.4133" stroke="white" stroke-opacity="0.5" stroke-width="4"/>
<path opacity="0.428571" d="M398.368 1592.13C283.757 1387.57 189.487 1312.45 -23.7163 1237.96C-272.282 1162.56 -400.331 1071.25 -537.295 807.015C-651.876 585.965 -807.823 447.955 -1062.1 366.655C-1354.35 273.21 -1482.72 211.704 -1613.65 -96.1573" stroke="white" stroke-opacity="0.5" stroke-width="4"/>
<path opacity="0.44898" d="M410.154 1592.78C315.059 1380.26 228.38 1297.9 23.6861 1206.31C-216 1110.9 -334.709 1009.67 -446.556 736.071C-540.124 507.187 -682.263 357.297 -927.073 255.555C-1208.45 138.613 -1330.19 66.9389 -1432.09 -249.462" stroke="white" stroke-opacity="0.5" stroke-width="4"/>
<path opacity="0.469388" d="M421.397 1593.98C346.323 1375.33 267.777 1286.48 72.939 1178.7C-156.281 1064.24 -264.903 954.015 -351.054 673.405C-423.126 438.657 -550.581 278.235 -784.311 157.069C-1052.96 17.803 -1167.26 -63.3562 -1239.66 -385.593" stroke="white" stroke-opacity="0.5" stroke-width="4"/>
<path opacity="0.489796" d="M432.052 1595.67C377.335 1372.75 307.389 1278.19 123.662 1155.24C-93.6045 1022.81 -191.481 904.578 -251.577 619.343C-301.851 380.724 -413.877 211.18 -635.015 71.7365C-889.188 -88.5383 -995.348 -178.44 -1038 -503.79" stroke="white" stroke-opacity="0.5" stroke-width="4"/>
<path opacity="0.510204" d="M442.078 1597.8C407.881 1372.5 346.928 1273.04 175.469 1136.02C-28.4662 986.825 -115.034 861.604 -148.933 574.136C-177.292 333.649 -273.275 156.441 -480.422 -0.0207362C-718.514 -179.855 -815.879 -277.705 -828.813 -603.452" stroke="white" stroke-opacity="0.5" stroke-width="4"/>
<path opacity="0.530612" d="M451.438 1600.31C437.755 1374.49 386.114 1270.98 227.969 1121.08C38.6266 956.426 -36.1632 825.283 -43.9425 537.962C-50.4504 297.599 -129.914 114.221 -321.795 -57.8936C-542.339 -255.719 -630.335 -360.675 -613.813 -684.13" stroke="white" stroke-opacity="0.5" stroke-width="4"/>
<path opacity="0.55102" d="M460.103 1603.15C466.758 1378.66 424.667 1271.95 280.771 1110.44C107.158 931.722 44.5156 795.747 62.5654 510.924C77.6653 272.65 15.0606 84.6215 -160.407 -101.689C-362.088 -315.832 -440.222 -427.013 -394.749 -745.538" stroke="white" stroke-opacity="0.5" stroke-width="4"/>
<path opacity="0.571429" d="M468.045 1606.25C494.699 1384.9 462.319 1275.87 333.489 1104.08C176.612 912.769 126.385 773.073 169.764 493.048C206.053 258.787 160.509 67.6396 2.46224 -131.331C-179.194 -360.025 -247.053 -476.518 -173.37 -787.545" stroke="white" stroke-opacity="0.5" stroke-width="4"/>
<path opacity="0.591837" d="M475.246 1609.55C521.397 1393.11 498.812 1282.63 385.74 1101.94C246.468 899.581 208.828 757.284 276.832 484.287C333.722 255.907 305.303 63.1699 165.545 -146.856C4.90889 -388.257 -52.3453 -509.126 48.583 -810.179" stroke="white" stroke-opacity="0.5" stroke-width="4"/>
<path opacity="0.612245" d="M481.691 1612.98C546.685 1403.15 533.899 1292.09 437.154 1103.93C316.216 892.122 291.232 748.346 382.963 484.522C459.703 263.815 448.336 71.0076 327.589 -148.415C188.803 -400.617 142.398 -524.909 269.39 -813.624" stroke="white" stroke-opacity="0.5" stroke-width="4"/>
<path opacity="0.632653" d="M487.37 1616.48C570.405 1414.88 567.347 1304.1 487.37 1109.92C385.353 890.313 372.994 746.17 487.37 493.561C583.054 282.237 588.534 90.8508 487.37 -136.269C371.094 -397.316 335.698 -524.068 487.37 -798.211" stroke="white" stroke-opacity="0.5" stroke-width="4"/>
<path opacity="0.653061" d="M492.282 1619.98C592.417 1428.14 598.942 1318.49 536.044 1119.78C453.387 894.03 453.528 750.619 589.292 511.147C702.868 310.813 724.862 122.305 643.704 -110.782C550.422 -378.69 526.111 -506.936 700.89 -764.422" stroke="white" stroke-opacity="0.5" stroke-width="4"/>
<path opacity="0.673469" d="M496.428 1623.41C612.595 1442.78 628.483 1335.06 582.847 1133.31C519.846 903.109 532.266 761.501 688 536.955C818.282 349.108 856.33 164.888 795.45 -72.4243C725.475 -345.187 712.241 -473.97 908.379 -712.874" stroke="white" stroke-opacity="0.5" stroke-width="4"/>
<path opacity="0.693878" d="M499.818 1626.71C630.829 1458.6 655.793 1353.62 627.474 1150.29C584.277 917.343 608.664 778.578 782.803 570.6C928.481 396.613 982.006 218.032 941.525 -21.759C894.997 -297.371 892.749 -425.742 1108.34 -644.321" stroke="white" stroke-opacity="0.5" stroke-width="4"/>
<path opacity="0.714286" d="M502.466 1629.82C647.026 1475.42 680.712 1373.93 669.639 1170.51C646.25 936.49 682.206 801.567 873.051 611.64C1032.71 452.753 1101.02 281.094 1080.91 40.5599C1057.79 -235.907 1066.36 -362.941 1299.36 -559.638" stroke="white" stroke-opacity="0.5" stroke-width="4"/>
<path opacity="0.734694" d="M504.392 1632.65C661.112 1493.04 703.104 1395.76 709.083 1193.69C705.365 960.272 752.409 830.141 958.144 659.578C1130.26 516.891 1212.56 353.361 1212.65 113.795C1212.75 -161.559 1231.89 -286.355 1480.13 -459.817" stroke="white" stroke-opacity="0.5" stroke-width="4"/>
<path opacity="0.755102" d="M505.622 1635.17C673.029 1511.28 722.855 1418.86 745.57 1219.56C761.247 988.376 818.822 863.936 1037.53 713.873C1220.5 588.334 1315.9 434.053 1335.87 197.132C1358.83 -75.1819 1388.21 -196.872 1649.42 -345.956" stroke="white" stroke-opacity="0.5" stroke-width="4"/>
<path opacity="0.77551" d="M506.187 1637.3C682.741 1529.92 739.874 1442.99 778.896 1247.83C813.557 1020.46 881.034 902.551 1110.72 773.936C1302.87 666.34 1410.39 522.336 1449.79 289.689C1495.08 22.288 1534.32 -95.4673 1806.15 -219.248" stroke="white" stroke-opacity="0.5" stroke-width="4"/>
<path opacity="0.795918" d="M506.124 1638.99C690.227 1548.76 754.094 1467.89 808.882 1278.17C861.99 1056.17 938.673 945.555 1177.27 839.144C1376.87 750.125 1495.46 617.326 1553.71 390.525C1620.66 129.843 1669.3 16.8073 1949.34 -80.9686" stroke="white" stroke-opacity="0.5" stroke-width="4"/>
<path opacity="0.816327" d="M505.471 1640.18C695.487 1567.59 765.473 1493.28 835.383 1310.27C906.275 1095.1 991.413 992.486 1236.81 908.843C1442.1 838.869 1570.62 718.098 1647.01 498.645C1734.8 246.41 1792.33 138.83 2078.12 67.5336" stroke="white" stroke-opacity="0.5" stroke-width="4"/>
<path opacity="0.836735" d="M504.276 1640.83C698.54 1586.22 773.992 1518.92 858.282 1343.79C946.181 1136.86 1038.97 1042.86 1289.03 982.35C1498.21 931.727 1635.49 823.696 1729.18 613.016C1836.87 370.864 1902.7 269.422 2191.78 224.851" stroke="white" stroke-opacity="0.5" stroke-width="4"/>
<path opacity="0.857143" d="M502.587 1640.9C699.423 1604.44 779.657 1544.52 877.495 1378.38C981.517 1181.01 1081.11 1096.18 1333.67 1058.97C1544.96 1027.83 1689.75 933.137 1799.82 732.567C1926.33 502.036 1999.84 407.355 2289.73 389.528" stroke="white" stroke-opacity="0.5" stroke-width="4"/>
<path opacity="0.877551" d="M500.457 1640.33C698.19 1622.05 782.5 1569.84 892.97 1413.71C1012.13 1227.12 1117.64 1151.93 1370.57 1137.97C1582.16 1126.3 1733.2 1045.42 1858.6 856.207C2002.74 638.724 2083.26 551.366 2371.52 560.075" stroke="white" stroke-opacity="0.5" stroke-width="4"/>
<path opacity="0.897959" d="M497.943 1639.1C694.915 1638.87 782.573 1594.62 904.687 1449.43C1037.91 1274.75 1148.43 1209.58 1399.6 1218.65C1609.72 1226.25 1765.71 1159.55 1905.33 982.829C2065.8 779.703 2152.61 700.165 2436.84 734.981" stroke="white" stroke-opacity="0.5" stroke-width="4"/>
<path opacity="0.918367" d="M495.105 1637.18C689.685 1654.72 779.953 1618.61 912.656 1485.2C1058.79 1323.45 1173.38 1268.59 1420.72 1300.28C1627.64 1326.79 1787.27 1274.52 1939.88 1111.32C2115.29 923.736 2207.67 852.448 2485.52 912.725" stroke="white" stroke-opacity="0.5" stroke-width="4"/>
<path opacity="0.938776" d="M492.004 1634.53C682.607 1669.42 774.74 1641.57 916.92 1520.67C1074.73 1372.77 1192.44 1328.43 1433.94 1382.14C1635.97 1427.06 1797.93 1389.34 1962.26 1240.57C2151.14 1069.58 2248.31 1006.91 2517.52 1091.79" stroke="white" stroke-opacity="0.5" stroke-width="4"/>
</g>
<path d="M871 575L856.4 548.5H852.3V575H835.2V504.8H863.9C869.433 504.8 874.133 505.767 878 507.7C881.933 509.633 884.867 512.3 886.8 515.7C888.733 519.033 889.7 522.767 889.7 526.9C889.7 531.567 888.367 535.733 885.7 539.4C883.1 543.067 879.233 545.667 874.1 547.2L890.3 575H871ZM852.3 536.4H862.9C866.033 536.4 868.367 535.633 869.9 534.1C871.5 532.567 872.3 530.4 872.3 527.6C872.3 524.933 871.5 522.833 869.9 521.3C868.367 519.767 866.033 519 862.9 519H852.3V536.4ZM953.034 546.2C953.034 547.8 952.934 549.467 952.734 551.2H914.034C914.301 554.667 915.401 557.333 917.334 559.2C919.334 561 921.768 561.9 924.634 561.9C928.901 561.9 931.868 560.1 933.534 556.5H951.734C950.801 560.167 949.101 563.467 946.634 566.4C944.234 569.333 941.201 571.633 937.534 573.3C933.868 574.967 929.768 575.8 925.234 575.8C919.768 575.8 914.901 574.633 910.634 572.3C906.368 569.967 903.034 566.633 900.634 562.3C898.234 557.967 897.034 552.9 897.034 547.1C897.034 541.3 898.201 536.233 900.534 531.9C902.934 527.567 906.268 524.233 910.534 521.9C914.801 519.567 919.701 518.4 925.234 518.4C930.634 518.4 935.434 519.533 939.634 521.8C943.834 524.067 947.101 527.3 949.434 531.5C951.834 535.7 953.034 540.6 953.034 546.2ZM935.534 541.7C935.534 538.767 934.534 536.433 932.534 534.7C930.534 532.967 928.034 532.1 925.034 532.1C922.168 532.1 919.734 532.933 917.734 534.6C915.801 536.267 914.601 538.633 914.134 541.7H935.534ZM993.155 560.5V575H984.455C978.255 575 973.422 573.5 969.955 570.5C966.489 567.433 964.755 562.467 964.755 555.6V533.4H957.955V519.2H964.755V505.6H981.855V519.2H993.055V533.4H981.855V555.8C981.855 557.467 982.255 558.667 983.055 559.4C983.855 560.133 985.189 560.5 987.055 560.5H993.155ZM1057.78 519.2V575H1040.68V567.4C1038.95 569.867 1036.58 571.867 1033.58 573.4C1030.65 574.867 1027.38 575.6 1023.78 575.6C1019.51 575.6 1015.75 574.667 1012.48 572.8C1009.21 570.867 1006.68 568.1 1004.88 564.5C1003.08 560.9 1002.18 556.667 1002.18 551.8V519.2H1019.18V549.5C1019.18 553.233 1020.15 556.133 1022.08 558.2C1024.01 560.267 1026.61 561.3 1029.88 561.3C1033.21 561.3 1035.85 560.267 1037.78 558.2C1039.71 556.133 1040.68 553.233 1040.68 549.5V519.2H1057.78ZM1087.16 528.5C1089.16 525.433 1091.66 523.033 1094.66 521.3C1097.66 519.5 1101 518.6 1104.66 518.6V536.7H1099.96C1095.7 536.7 1092.5 537.633 1090.36 539.5C1088.23 541.3 1087.16 544.5 1087.16 549.1V575H1070.06V519.2H1087.16V528.5ZM1146.84 518.6C1153.37 518.6 1158.57 520.733 1162.44 525C1166.37 529.2 1168.34 535 1168.34 542.4V575H1151.34V544.7C1151.34 540.967 1150.37 538.067 1148.44 536C1146.5 533.933 1143.9 532.9 1140.64 532.9C1137.37 532.9 1134.77 533.933 1132.84 536C1130.9 538.067 1129.94 540.967 1129.94 544.7V575H1112.84V519.2H1129.94V526.6C1131.67 524.133 1134 522.2 1136.94 520.8C1139.87 519.333 1143.17 518.6 1146.84 518.6ZM1202.92 575.8C1198.05 575.8 1193.72 574.967 1189.92 573.3C1186.12 571.633 1183.12 569.367 1180.92 566.5C1178.72 563.567 1177.49 560.3 1177.22 556.7H1194.12C1194.32 558.633 1195.22 560.2 1196.82 561.4C1198.42 562.6 1200.39 563.2 1202.72 563.2C1204.85 563.2 1206.49 562.8 1207.62 562C1208.82 561.133 1209.42 560.033 1209.42 558.7C1209.42 557.1 1208.59 555.933 1206.92 555.2C1205.25 554.4 1202.55 553.533 1198.82 552.6C1194.82 551.667 1191.49 550.7 1188.82 549.7C1186.15 548.633 1183.85 547 1181.92 544.8C1179.99 542.533 1179.02 539.5 1179.02 535.7C1179.02 532.5 1179.89 529.6 1181.62 527C1183.42 524.333 1186.02 522.233 1189.42 520.7C1192.89 519.167 1196.99 518.4 1201.72 518.4C1208.72 518.4 1214.22 520.133 1218.22 523.6C1222.29 527.067 1224.62 531.667 1225.22 537.4H1209.42C1209.15 535.467 1208.29 533.933 1206.82 532.8C1205.42 531.667 1203.55 531.1 1201.22 531.1C1199.22 531.1 1197.69 531.5 1196.62 532.3C1195.55 533.033 1195.02 534.067 1195.02 535.4C1195.02 537 1195.85 538.2 1197.52 539C1199.25 539.8 1201.92 540.6 1205.52 541.4C1209.65 542.467 1213.02 543.533 1215.62 544.6C1218.22 545.6 1220.49 547.267 1222.42 549.6C1224.42 551.867 1225.45 554.933 1225.52 558.8C1225.52 562.067 1224.59 565 1222.72 567.6C1220.92 570.133 1218.29 572.133 1214.82 573.6C1211.42 575.067 1207.45 575.8 1202.92 575.8Z" fill="white"/>
<path d="M742.575 496.675C742.097 496.396 741.553 496.249 741 496.249C740.447 496.249 739.903 496.396 739.425 496.675L703.5 517.633L741 539.508L778.5 517.633L742.575 496.675ZM781.625 523.042L744.125 544.917V582.417L780.075 561.45C780.547 561.175 780.938 560.78 781.21 560.307C781.482 559.833 781.625 559.296 781.625 558.75V523.042ZM737.875 582.417V544.917L700.375 523.042V558.75C700.375 559.296 700.518 559.833 700.79 560.307C701.062 560.78 701.453 561.175 701.925 561.45L737.875 582.417Z" fill="white"/>
</g>
<defs>
<clipPath id="clip0_1_2">
<rect width="1920" height="1080" fill="white"/>
</clipPath>
</defs>
</svg>
