<svg width="1920" height="1080" viewBox="0 0 1920 1080" fill="none" xmlns="http://www.w3.org/2000/svg">
<g clip-path="url(#clip0_1_2)">
<rect width="1920" height="1080" fill="white"/>
<rect width="1920" height="1080" fill="#DC2626"/>
<g opacity="0.25">
<path opacity="0.306122" d="M319.253 1601.83C107.265 1480.13 -17.6733 1461.21 -249.625 1501.52C-513.969 1558.5 -677.991 1542.13 -941.817 1379.46C-1162.52 1243.39 -1376.5 1200.09 -1649.13 1254.75C-1962.49 1317.56 -2110.98 1327.32 -2392.51 1123.67" stroke="white" stroke-opacity="0.5" stroke-width="4"/>
<path opacity="0.326531" d="M333.143 1598.44C134.276 1459.19 12.402 1429.69 -220.535 1450.08C-486.979 1484.3 -647.728 1454.02 -894.233 1269.56C-1100.45 1115.25 -1308.22 1053.9 -1582.65 1085.1C-1898.08 1120.96 -2045.78 1118.03 -2306.17 891.234" stroke="white" stroke-opacity="0.5" stroke-width="4"/>
<path opacity="0.346939" d="M346.835 1595.79C162.523 1440.34 44.5958 1400.67 -187.631 1401.26C-454.234 1412.79 -610.544 1369.05 -837.951 1164.56C-1028.19 993.494 -1228.25 914.848 -1502.48 922.692C-1817.68 931.708 -1963.52 916.293 -2200.89 668.491" stroke="white" stroke-opacity="0.5" stroke-width="4"/>
<path opacity="0.367347" d="M360.264 1593.86C191.804 1423.69 78.6639 1374.3 -151.186 1355.37C-416.034 1344.43 -566.791 1287.77 -773.502 1065.18C-946.43 878.965 -1137.35 783.891 -1409.42 768.646C-1722.13 751.124 -1865.06 723.527 -2077.75 456.996" stroke="white" stroke-opacity="0.5" stroke-width="4"/>
<path opacity="0.387755" d="M373.368 1592.63C221.913 1409.31 114.348 1350.74 -111.502 1312.69C-372.72 1279.68 -516.87 1210.72 -701.476 972.07C-855.911 772.421 -1036.36 661.909 -1304.34 624.006C-1612.35 580.441 -1751.37 541.048 -1937.94 258.195" stroke="white" stroke-opacity="0.5" stroke-width="4"/>
<path opacity="0.408163" d="M386.088 1592.07C252.635 1397.25 151.381 1330.09 -68.8981 1273.48C-324.667 1218.93 -461.223 1138.4 -622.511 885.837C-757.439 674.551 -926.198 549.695 -1188.22 489.723C-1489.38 420.793 -1623.53 370.071 -1782.77 73.4133" stroke="white" stroke-opacity="0.5" stroke-width="4"/>
<path opacity="0.428571" d="M398.368 1592.13C283.757 1387.57 189.487 1312.45 -23.7163 1237.96C-272.282 1162.56 -400.331 1071.25 -537.295 807.015C-651.876 585.965 -807.823 447.955 -1062.1 366.655C-1354.35 273.21 -1482.72 211.704 -1613.65 -96.1573" stroke="white" stroke-opacity="0.5" stroke-width="4"/>
<path opacity="0.44898" d="M410.154 1592.78C315.059 1380.26 228.38 1297.9 23.6861 1206.31C-216 1110.9 -334.709 1009.67 -446.556 736.071C-540.124 507.187 -682.263 357.297 -927.073 255.555C-1208.45 138.613 -1330.19 66.9389 -1432.09 -249.462" stroke="white" stroke-opacity="0.5" stroke-width="4"/>
<path opacity="0.469388" d="M421.397 1593.98C346.323 1375.33 267.777 1286.48 72.939 1178.7C-156.281 1064.24 -264.903 954.015 -351.054 673.405C-423.126 438.657 -550.581 278.235 -784.311 157.069C-1052.96 17.803 -1167.26 -63.3562 -1239.66 -385.593" stroke="white" stroke-opacity="0.5" stroke-width="4"/>
<path opacity="0.489796" d="M432.052 1595.67C377.335 1372.75 307.389 1278.19 123.662 1155.24C-93.6045 1022.81 -191.481 904.578 -251.577 619.343C-301.851 380.724 -413.877 211.18 -635.015 71.7365C-889.188 -88.5383 -995.348 -178.44 -1038 -503.79" stroke="white" stroke-opacity="0.5" stroke-width="4"/>
<path opacity="0.510204" d="M442.078 1597.8C407.881 1372.5 346.928 1273.04 175.469 1136.02C-28.4662 986.825 -115.034 861.604 -148.933 574.136C-177.292 333.649 -273.275 156.441 -480.422 -0.0207362C-718.514 -179.855 -815.879 -277.705 -828.813 -603.452" stroke="white" stroke-opacity="0.5" stroke-width="4"/>
<path opacity="0.530612" d="M451.438 1600.31C437.755 1374.49 386.114 1270.98 227.969 1121.08C38.6266 956.426 -36.1632 825.283 -43.9425 537.962C-50.4504 297.599 -129.914 114.221 -321.795 -57.8936C-542.339 -255.719 -630.335 -360.675 -613.813 -684.13" stroke="white" stroke-opacity="0.5" stroke-width="4"/>
<path opacity="0.55102" d="M460.103 1603.15C466.758 1378.66 424.667 1271.95 280.771 1110.44C107.158 931.722 44.5156 795.747 62.5654 510.924C77.6653 272.65 15.0606 84.6215 -160.407 -101.689C-362.088 -315.832 -440.222 -427.013 -394.749 -745.538" stroke="white" stroke-opacity="0.5" stroke-width="4"/>
<path opacity="0.571429" d="M468.045 1606.25C494.699 1384.9 462.319 1275.87 333.489 1104.08C176.612 912.769 126.385 773.073 169.764 493.048C206.053 258.787 160.509 67.6396 2.46224 -131.331C-179.194 -360.025 -247.053 -476.518 -173.37 -787.545" stroke="white" stroke-opacity="0.5" stroke-width="4"/>
<path opacity="0.591837" d="M475.246 1609.55C521.397 1393.11 498.812 1282.63 385.74 1101.94C246.468 899.581 208.828 757.284 276.832 484.287C333.722 255.907 305.303 63.1699 165.545 -146.856C4.90889 -388.257 -52.3453 -509.126 48.583 -810.179" stroke="white" stroke-opacity="0.5" stroke-width="4"/>
<path opacity="0.612245" d="M481.691 1612.98C546.685 1403.15 533.899 1292.09 437.154 1103.93C316.216 892.122 291.232 748.346 382.963 484.522C459.703 263.815 448.336 71.0076 327.589 -148.415C188.803 -400.617 142.398 -524.909 269.39 -813.624" stroke="white" stroke-opacity="0.5" stroke-width="4"/>
<path opacity="0.632653" d="M487.37 1616.48C570.405 1414.88 567.347 1304.1 487.37 1109.92C385.353 890.313 372.994 746.17 487.37 493.561C583.054 282.237 588.534 90.8508 487.37 -136.269C371.094 -397.316 335.698 -524.068 487.37 -798.211" stroke="white" stroke-opacity="0.5" stroke-width="4"/>
<path opacity="0.653061" d="M492.282 1619.98C592.417 1428.14 598.942 1318.49 536.044 1119.78C453.387 894.03 453.528 750.619 589.292 511.147C702.868 310.813 724.862 122.305 643.704 -110.782C550.422 -378.69 526.111 -506.936 700.89 -764.422" stroke="white" stroke-opacity="0.5" stroke-width="4"/>
<path opacity="0.673469" d="M496.428 1623.41C612.595 1442.78 628.483 1335.06 582.847 1133.31C519.846 903.109 532.266 761.501 688 536.955C818.282 349.108 856.33 164.888 795.45 -72.4243C725.475 -345.187 712.241 -473.97 908.379 -712.874" stroke="white" stroke-opacity="0.5" stroke-width="4"/>
<path opacity="0.693878" d="M499.818 1626.71C630.829 1458.6 655.793 1353.62 627.474 1150.29C584.277 917.343 608.664 778.578 782.803 570.6C928.481 396.613 982.006 218.032 941.525 -21.759C894.997 -297.371 892.749 -425.742 1108.34 -644.321" stroke="white" stroke-opacity="0.5" stroke-width="4"/>
<path opacity="0.714286" d="M502.466 1629.82C647.026 1475.42 680.712 1373.93 669.639 1170.51C646.25 936.49 682.206 801.567 873.051 611.64C1032.71 452.753 1101.02 281.094 1080.91 40.5599C1057.79 -235.907 1066.36 -362.941 1299.36 -559.638" stroke="white" stroke-opacity="0.5" stroke-width="4"/>
<path opacity="0.734694" d="M504.392 1632.65C661.112 1493.04 703.104 1395.76 709.083 1193.69C705.365 960.272 752.409 830.141 958.144 659.578C1130.26 516.891 1212.56 353.361 1212.65 113.795C1212.75 -161.559 1231.89 -286.355 1480.13 -459.817" stroke="white" stroke-opacity="0.5" stroke-width="4"/>
<path opacity="0.755102" d="M505.622 1635.17C673.029 1511.28 722.855 1418.86 745.57 1219.56C761.247 988.376 818.822 863.936 1037.53 713.873C1220.5 588.334 1315.9 434.053 1335.87 197.132C1358.83 -75.1819 1388.21 -196.872 1649.42 -345.956" stroke="white" stroke-opacity="0.5" stroke-width="4"/>
<path opacity="0.77551" d="M506.187 1637.3C682.741 1529.92 739.874 1442.99 778.896 1247.83C813.557 1020.46 881.034 902.551 1110.72 773.936C1302.87 666.34 1410.39 522.336 1449.79 289.689C1495.08 22.288 1534.32 -95.4673 1806.15 -219.248" stroke="white" stroke-opacity="0.5" stroke-width="4"/>
<path opacity="0.795918" d="M506.124 1638.99C690.227 1548.76 754.094 1467.89 808.882 1278.17C861.99 1056.17 938.673 945.555 1177.27 839.144C1376.87 750.125 1495.46 617.326 1553.71 390.525C1620.66 129.843 1669.3 16.8073 1949.34 -80.9686" stroke="white" stroke-opacity="0.5" stroke-width="4"/>
<path opacity="0.816327" d="M505.471 1640.18C695.487 1567.59 765.473 1493.28 835.383 1310.27C906.275 1095.1 991.413 992.486 1236.81 908.843C1442.1 838.869 1570.62 718.098 1647.01 498.645C1734.8 246.41 1792.33 138.83 2078.12 67.5336" stroke="white" stroke-opacity="0.5" stroke-width="4"/>
<path opacity="0.836735" d="M504.276 1640.83C698.54 1586.22 773.992 1518.92 858.282 1343.79C946.181 1136.86 1038.97 1042.86 1289.03 982.35C1498.21 931.727 1635.49 823.696 1729.18 613.016C1836.87 370.864 1902.7 269.422 2191.78 224.851" stroke="white" stroke-opacity="0.5" stroke-width="4"/>
<path opacity="0.857143" d="M502.587 1640.9C699.423 1604.44 779.657 1544.52 877.495 1378.38C981.517 1181.01 1081.11 1096.18 1333.67 1058.97C1544.96 1027.83 1689.75 933.137 1799.82 732.567C1926.33 502.036 1999.84 407.355 2289.73 389.528" stroke="white" stroke-opacity="0.5" stroke-width="4"/>
<path opacity="0.877551" d="M500.457 1640.33C698.19 1622.05 782.5 1569.84 892.97 1413.71C1012.13 1227.12 1117.64 1151.93 1370.57 1137.97C1582.16 1126.3 1733.2 1045.42 1858.6 856.207C2002.74 638.724 2083.26 551.366 2371.52 560.075" stroke="white" stroke-opacity="0.5" stroke-width="4"/>
<path opacity="0.897959" d="M497.943 1639.1C694.915 1638.87 782.573 1594.62 904.687 1449.43C1037.91 1274.75 1148.43 1209.58 1399.6 1218.65C1609.72 1226.25 1765.71 1159.55 1905.33 982.829C2065.8 779.703 2152.61 700.165 2436.84 734.981" stroke="white" stroke-opacity="0.5" stroke-width="4"/>
<path opacity="0.918367" d="M495.105 1637.18C689.685 1654.72 779.953 1618.61 912.656 1485.2C1058.79 1323.45 1173.38 1268.59 1420.72 1300.28C1627.64 1326.79 1787.27 1274.52 1939.88 1111.32C2115.29 923.736 2207.67 852.448 2485.52 912.725" stroke="white" stroke-opacity="0.5" stroke-width="4"/>
<path opacity="0.938776" d="M492.004 1634.53C682.607 1669.42 774.74 1641.57 916.92 1520.67C1074.73 1372.77 1192.44 1328.43 1433.94 1382.14C1635.97 1427.06 1797.93 1389.34 1962.26 1240.57C2151.14 1069.58 2248.31 1006.91 2517.52 1091.79" stroke="white" stroke-opacity="0.5" stroke-width="4"/>
</g>
<path d="M854.6 575.7C849.467 575.7 844.867 574.867 840.8 573.2C836.733 571.533 833.467 569.067 831 565.8C828.6 562.533 827.333 558.6 827.2 554H845.4C845.667 556.6 846.567 558.6 848.1 560C849.633 561.333 851.633 562 854.1 562C856.633 562 858.633 561.433 860.1 560.3C861.567 559.1 862.3 557.467 862.3 555.4C862.3 553.667 861.7 552.233 860.5 551.1C859.367 549.967 857.933 549.033 856.2 548.3C854.533 547.567 852.133 546.733 849 545.8C844.467 544.4 840.767 543 837.9 541.6C835.033 540.2 832.567 538.133 830.5 535.4C828.433 532.667 827.4 529.1 827.4 524.7C827.4 518.167 829.767 513.067 834.5 509.4C839.233 505.667 845.4 503.8 853 503.8C860.733 503.8 866.967 505.667 871.7 509.4C876.433 513.067 878.967 518.2 879.3 524.8H860.8C860.667 522.533 859.833 520.767 858.3 519.5C856.767 518.167 854.8 517.5 852.4 517.5C850.333 517.5 848.667 518.067 847.4 519.2C846.133 520.267 845.5 521.833 845.5 523.9C845.5 526.167 846.567 527.933 848.7 529.2C850.833 530.467 854.167 531.833 858.7 533.3C863.233 534.833 866.9 536.3 869.7 537.7C872.567 539.1 875.033 541.133 877.1 543.8C879.167 546.467 880.2 549.9 880.2 554.1C880.2 558.1 879.167 561.733 877.1 565C875.1 568.267 872.167 570.867 868.3 572.8C864.433 574.733 859.867 575.7 854.6 575.7ZM945.823 519.2V575H928.723V567.4C926.99 569.867 924.623 571.867 921.623 573.4C918.69 574.867 915.423 575.6 911.823 575.6C907.557 575.6 903.79 574.667 900.523 572.8C897.257 570.867 894.723 568.1 892.923 564.5C891.123 560.9 890.223 556.667 890.223 551.8V519.2H907.223V549.5C907.223 553.233 908.19 556.133 910.123 558.2C912.057 560.267 914.657 561.3 917.923 561.3C921.257 561.3 923.89 560.267 925.823 558.2C927.757 556.133 928.723 553.233 928.723 549.5V519.2H945.823ZM975.206 527.1C976.873 524.5 979.173 522.4 982.106 520.8C985.04 519.2 988.473 518.4 992.406 518.4C997.006 518.4 1001.17 519.567 1004.91 521.9C1008.64 524.233 1011.57 527.567 1013.71 531.9C1015.91 536.233 1017.01 541.267 1017.01 547C1017.01 552.733 1015.91 557.8 1013.71 562.2C1011.57 566.533 1008.64 569.9 1004.91 572.3C1001.17 574.633 997.006 575.8 992.406 575.8C988.54 575.8 985.106 575 982.106 573.4C979.173 571.8 976.873 569.733 975.206 567.2V601.6H958.106V519.2H975.206V527.1ZM999.606 547C999.606 542.733 998.406 539.4 996.006 537C993.673 534.533 990.773 533.3 987.306 533.3C983.906 533.3 981.006 534.533 978.606 537C976.273 539.467 975.106 542.833 975.106 547.1C975.106 551.367 976.273 554.733 978.606 557.2C981.006 559.667 983.906 560.9 987.306 560.9C990.706 560.9 993.606 559.667 996.006 557.2C998.406 554.667 999.606 551.267 999.606 547ZM1043.08 527.1C1044.74 524.5 1047.04 522.4 1049.98 520.8C1052.91 519.2 1056.34 518.4 1060.28 518.4C1064.88 518.4 1069.04 519.567 1072.78 521.9C1076.51 524.233 1079.44 527.567 1081.58 531.9C1083.78 536.233 1084.88 541.267 1084.88 547C1084.88 552.733 1083.78 557.8 1081.58 562.2C1079.44 566.533 1076.51 569.9 1072.78 572.3C1069.04 574.633 1064.88 575.8 1060.28 575.8C1056.41 575.8 1052.98 575 1049.98 573.4C1047.04 571.8 1044.74 569.733 1043.08 567.2V601.6H1025.98V519.2H1043.08V527.1ZM1067.48 547C1067.48 542.733 1066.28 539.4 1063.88 537C1061.54 534.533 1058.64 533.3 1055.18 533.3C1051.78 533.3 1048.88 534.533 1046.48 537C1044.14 539.467 1042.98 542.833 1042.98 547.1C1042.98 551.367 1044.14 554.733 1046.48 557.2C1048.88 559.667 1051.78 560.9 1055.18 560.9C1058.58 560.9 1061.48 559.667 1063.88 557.2C1066.28 554.667 1067.48 551.267 1067.48 547ZM1119.25 575.8C1113.78 575.8 1108.85 574.633 1104.45 572.3C1100.12 569.967 1096.68 566.633 1094.15 562.3C1091.68 557.967 1090.45 552.9 1090.45 547.1C1090.45 541.367 1091.72 536.333 1094.25 532C1096.78 527.6 1100.25 524.233 1104.65 521.9C1109.05 519.567 1113.98 518.4 1119.45 518.4C1124.92 518.4 1129.85 519.567 1134.25 521.9C1138.65 524.233 1142.12 527.6 1144.65 532C1147.18 536.333 1148.45 541.367 1148.45 547.1C1148.45 552.833 1147.15 557.9 1144.55 562.3C1142.02 566.633 1138.52 569.967 1134.05 572.3C1129.65 574.633 1124.72 575.8 1119.25 575.8ZM1119.25 561C1122.52 561 1125.28 559.8 1127.55 557.4C1129.88 555 1131.05 551.567 1131.05 547.1C1131.05 542.633 1129.92 539.2 1127.65 536.8C1125.45 534.4 1122.72 533.2 1119.45 533.2C1116.12 533.2 1113.35 534.4 1111.15 536.8C1108.95 539.133 1107.85 542.567 1107.85 547.1C1107.85 551.567 1108.92 555 1111.05 557.4C1113.25 559.8 1115.98 561 1119.25 561ZM1174.62 528.5C1176.62 525.433 1179.12 523.033 1182.12 521.3C1185.12 519.5 1188.45 518.6 1192.12 518.6V536.7H1187.42C1183.15 536.7 1179.95 537.633 1177.82 539.5C1175.69 541.3 1174.62 544.5 1174.62 549.1V575H1157.52V519.2H1174.62V528.5ZM1231.39 560.5V575H1222.69C1216.49 575 1211.66 573.5 1208.19 570.5C1204.73 567.433 1202.99 562.467 1202.99 555.6V533.4H1196.19V519.2H1202.99V505.6H1220.09V519.2H1231.29V533.4H1220.09V555.8C1220.09 557.467 1220.49 558.667 1221.29 559.4C1222.09 560.133 1223.43 560.5 1225.29 560.5H1231.39Z" fill="white"/>
<path fill-rule="evenodd" clip-rule="evenodd" d="M694.375 540C694.375 517.562 712.562 499.375 735 499.375C757.437 499.375 775.625 517.562 775.625 540C775.625 562.437 757.437 580.625 735 580.625C712.562 580.625 694.375 562.437 694.375 540ZM741.783 523.679C738.075 520.442 731.925 520.442 728.221 523.679C727.597 524.225 726.782 524.501 725.955 524.446C725.128 524.391 724.356 524.009 723.81 523.385C723.265 522.762 722.989 521.946 723.044 521.119C723.099 520.292 723.48 519.521 724.104 518.975C730.162 513.675 739.837 513.675 745.896 518.975C752.2 524.492 752.2 533.633 745.896 539.15C744.842 540.069 743.669 540.843 742.408 541.45C739.592 542.817 738.125 544.675 738.125 546.25V549.375C738.125 550.204 737.796 550.999 737.21 551.585C736.624 552.171 735.829 552.5 735 552.5C734.171 552.5 733.376 552.171 732.79 551.585C732.204 550.999 731.875 550.204 731.875 549.375V546.25C731.875 540.921 736.292 537.471 739.687 535.825C740.446 535.458 741.15 534.996 741.783 534.446C745.242 531.417 745.242 526.708 741.783 523.679ZM735 565C735.829 565 736.624 564.671 737.21 564.085C737.796 563.499 738.125 562.704 738.125 561.875C738.125 561.046 737.796 560.251 737.21 559.665C736.624 559.079 735.829 558.75 735 558.75C734.171 558.75 733.376 559.079 732.79 559.665C732.204 560.251 731.875 561.046 731.875 561.875C731.875 562.704 732.204 563.499 732.79 564.085C733.376 564.671 734.171 565 735 565Z" fill="white"/>
</g>
<defs>
<clipPath id="clip0_1_2">
<rect width="1920" height="1080" fill="white"/>
</clipPath>
</defs>
</svg>
