<svg width="1920" height="1080" viewBox="0 0 1920 1080" fill="none" xmlns="http://www.w3.org/2000/svg">
<g clip-path="url(#clip0_1_2)">
<rect width="1920" height="1080" fill="white"/>
<rect width="1920" height="1080" fill="#DC2626"/>
<g opacity="0.25">
<path opacity="0.306122" d="M319.253 1601.83C107.265 1480.13 -17.6733 1461.21 -249.625 1501.52C-513.969 1558.5 -677.991 1542.13 -941.817 1379.46C-1162.52 1243.39 -1376.5 1200.09 -1649.13 1254.75C-1962.49 1317.56 -2110.98 1327.32 -2392.51 1123.67" stroke="white" stroke-opacity="0.5" stroke-width="4"/>
<path opacity="0.326531" d="M333.143 1598.44C134.276 1459.19 12.402 1429.69 -220.535 1450.08C-486.979 1484.3 -647.728 1454.02 -894.233 1269.56C-1100.45 1115.25 -1308.22 1053.9 -1582.65 1085.1C-1898.08 1120.96 -2045.78 1118.03 -2306.17 891.234" stroke="white" stroke-opacity="0.5" stroke-width="4"/>
<path opacity="0.346939" d="M346.835 1595.79C162.523 1440.34 44.5958 1400.67 -187.631 1401.26C-454.234 1412.79 -610.544 1369.05 -837.951 1164.56C-1028.19 993.494 -1228.25 914.848 -1502.48 922.692C-1817.68 931.708 -1963.52 916.293 -2200.89 668.491" stroke="white" stroke-opacity="0.5" stroke-width="4"/>
<path opacity="0.367347" d="M360.264 1593.86C191.804 1423.69 78.6639 1374.3 -151.186 1355.37C-416.034 1344.43 -566.791 1287.77 -773.502 1065.18C-946.43 878.965 -1137.35 783.891 -1409.42 768.646C-1722.13 751.124 -1865.06 723.527 -2077.75 456.996" stroke="white" stroke-opacity="0.5" stroke-width="4"/>
<path opacity="0.387755" d="M373.368 1592.63C221.913 1409.31 114.348 1350.74 -111.502 1312.69C-372.72 1279.68 -516.87 1210.72 -701.476 972.07C-855.911 772.421 -1036.36 661.909 -1304.34 624.006C-1612.35 580.441 -1751.37 541.048 -1937.94 258.195" stroke="white" stroke-opacity="0.5" stroke-width="4"/>
<path opacity="0.408163" d="M386.088 1592.07C252.635 1397.25 151.381 1330.09 -68.8981 1273.48C-324.667 1218.93 -461.223 1138.4 -622.511 885.837C-757.439 674.551 -926.198 549.695 -1188.22 489.723C-1489.38 420.793 -1623.53 370.071 -1782.77 73.4133" stroke="white" stroke-opacity="0.5" stroke-width="4"/>
<path opacity="0.428571" d="M398.368 1592.13C283.757 1387.57 189.487 1312.45 -23.7163 1237.96C-272.282 1162.56 -400.331 1071.25 -537.295 807.015C-651.876 585.965 -807.823 447.955 -1062.1 366.655C-1354.35 273.21 -1482.72 211.704 -1613.65 -96.1573" stroke="white" stroke-opacity="0.5" stroke-width="4"/>
<path opacity="0.44898" d="M410.154 1592.78C315.059 1380.26 228.38 1297.9 23.6861 1206.31C-216 1110.9 -334.709 1009.67 -446.556 736.071C-540.124 507.187 -682.263 357.297 -927.073 255.555C-1208.45 138.613 -1330.19 66.9389 -1432.09 -249.462" stroke="white" stroke-opacity="0.5" stroke-width="4"/>
<path opacity="0.469388" d="M421.397 1593.98C346.323 1375.33 267.777 1286.48 72.939 1178.7C-156.281 1064.24 -264.903 954.015 -351.054 673.405C-423.126 438.657 -550.581 278.235 -784.311 157.069C-1052.96 17.803 -1167.26 -63.3562 -1239.66 -385.593" stroke="white" stroke-opacity="0.5" stroke-width="4"/>
<path opacity="0.489796" d="M432.052 1595.67C377.335 1372.75 307.389 1278.19 123.662 1155.24C-93.6045 1022.81 -191.481 904.578 -251.577 619.343C-301.851 380.724 -413.877 211.18 -635.015 71.7365C-889.188 -88.5383 -995.348 -178.44 -1038 -503.79" stroke="white" stroke-opacity="0.5" stroke-width="4"/>
<path opacity="0.510204" d="M442.078 1597.8C407.881 1372.5 346.928 1273.04 175.469 1136.02C-28.4662 986.825 -115.034 861.604 -148.933 574.136C-177.292 333.649 -273.275 156.441 -480.422 -0.0207362C-718.514 -179.855 -815.879 -277.705 -828.813 -603.452" stroke="white" stroke-opacity="0.5" stroke-width="4"/>
<path opacity="0.530612" d="M451.438 1600.31C437.755 1374.49 386.114 1270.98 227.969 1121.08C38.6266 956.426 -36.1632 825.283 -43.9425 537.962C-50.4504 297.599 -129.914 114.221 -321.795 -57.8936C-542.339 -255.719 -630.335 -360.675 -613.813 -684.13" stroke="white" stroke-opacity="0.5" stroke-width="4"/>
<path opacity="0.55102" d="M460.103 1603.15C466.758 1378.66 424.667 1271.95 280.771 1110.44C107.158 931.722 44.5156 795.747 62.5654 510.924C77.6653 272.65 15.0606 84.6215 -160.407 -101.689C-362.088 -315.832 -440.222 -427.013 -394.749 -745.538" stroke="white" stroke-opacity="0.5" stroke-width="4"/>
<path opacity="0.571429" d="M468.045 1606.25C494.699 1384.9 462.319 1275.87 333.489 1104.08C176.612 912.769 126.385 773.073 169.764 493.048C206.053 258.787 160.509 67.6396 2.46224 -131.331C-179.194 -360.025 -247.053 -476.518 -173.37 -787.545" stroke="white" stroke-opacity="0.5" stroke-width="4"/>
<path opacity="0.591837" d="M475.246 1609.55C521.397 1393.11 498.812 1282.63 385.74 1101.94C246.468 899.581 208.828 757.284 276.832 484.287C333.722 255.907 305.303 63.1699 165.545 -146.856C4.90889 -388.257 -52.3453 -509.126 48.583 -810.179" stroke="white" stroke-opacity="0.5" stroke-width="4"/>
<path opacity="0.612245" d="M481.691 1612.98C546.685 1403.15 533.899 1292.09 437.154 1103.93C316.216 892.122 291.232 748.346 382.963 484.522C459.703 263.815 448.336 71.0076 327.589 -148.415C188.803 -400.617 142.398 -524.909 269.39 -813.624" stroke="white" stroke-opacity="0.5" stroke-width="4"/>
<path opacity="0.632653" d="M487.37 1616.48C570.405 1414.88 567.347 1304.1 487.37 1109.92C385.353 890.313 372.994 746.17 487.37 493.561C583.054 282.237 588.534 90.8508 487.37 -136.269C371.094 -397.316 335.698 -524.068 487.37 -798.211" stroke="white" stroke-opacity="0.5" stroke-width="4"/>
<path opacity="0.653061" d="M492.282 1619.98C592.417 1428.14 598.942 1318.49 536.044 1119.78C453.387 894.03 453.528 750.619 589.292 511.147C702.868 310.813 724.862 122.305 643.704 -110.782C550.422 -378.69 526.111 -506.936 700.89 -764.422" stroke="white" stroke-opacity="0.5" stroke-width="4"/>
<path opacity="0.673469" d="M496.428 1623.41C612.595 1442.78 628.483 1335.06 582.847 1133.31C519.846 903.109 532.266 761.501 688 536.955C818.282 349.108 856.33 164.888 795.45 -72.4243C725.475 -345.187 712.241 -473.97 908.379 -712.874" stroke="white" stroke-opacity="0.5" stroke-width="4"/>
<path opacity="0.693878" d="M499.818 1626.71C630.829 1458.6 655.793 1353.62 627.474 1150.29C584.277 917.343 608.664 778.578 782.803 570.6C928.481 396.613 982.006 218.032 941.525 -21.759C894.997 -297.371 892.749 -425.742 1108.34 -644.321" stroke="white" stroke-opacity="0.5" stroke-width="4"/>
<path opacity="0.714286" d="M502.466 1629.82C647.026 1475.42 680.712 1373.93 669.639 1170.51C646.25 936.49 682.206 801.567 873.051 611.64C1032.71 452.753 1101.02 281.094 1080.91 40.5599C1057.79 -235.907 1066.36 -362.941 1299.36 -559.638" stroke="white" stroke-opacity="0.5" stroke-width="4"/>
<path opacity="0.734694" d="M504.392 1632.65C661.112 1493.04 703.104 1395.76 709.083 1193.69C705.365 960.272 752.409 830.141 958.144 659.578C1130.26 516.891 1212.56 353.361 1212.65 113.795C1212.75 -161.559 1231.89 -286.355 1480.13 -459.817" stroke="white" stroke-opacity="0.5" stroke-width="4"/>
<path opacity="0.755102" d="M505.622 1635.17C673.029 1511.28 722.855 1418.86 745.57 1219.56C761.247 988.376 818.822 863.936 1037.53 713.873C1220.5 588.334 1315.9 434.053 1335.87 197.132C1358.83 -75.1819 1388.21 -196.872 1649.42 -345.956" stroke="white" stroke-opacity="0.5" stroke-width="4"/>
<path opacity="0.77551" d="M506.187 1637.3C682.741 1529.92 739.874 1442.99 778.896 1247.83C813.557 1020.46 881.034 902.551 1110.72 773.936C1302.87 666.34 1410.39 522.336 1449.79 289.689C1495.08 22.288 1534.32 -95.4673 1806.15 -219.248" stroke="white" stroke-opacity="0.5" stroke-width="4"/>
<path opacity="0.795918" d="M506.124 1638.99C690.227 1548.76 754.094 1467.89 808.882 1278.17C861.99 1056.17 938.673 945.555 1177.27 839.144C1376.87 750.125 1495.46 617.326 1553.71 390.525C1620.66 129.843 1669.3 16.8073 1949.34 -80.9686" stroke="white" stroke-opacity="0.5" stroke-width="4"/>
<path opacity="0.816327" d="M505.471 1640.18C695.487 1567.59 765.473 1493.28 835.383 1310.27C906.275 1095.1 991.413 992.486 1236.81 908.843C1442.1 838.869 1570.62 718.098 1647.01 498.645C1734.8 246.41 1792.33 138.83 2078.12 67.5336" stroke="white" stroke-opacity="0.5" stroke-width="4"/>
<path opacity="0.836735" d="M504.276 1640.83C698.54 1586.22 773.992 1518.92 858.282 1343.79C946.181 1136.86 1038.97 1042.86 1289.03 982.35C1498.21 931.727 1635.49 823.696 1729.18 613.016C1836.87 370.864 1902.7 269.422 2191.78 224.851" stroke="white" stroke-opacity="0.5" stroke-width="4"/>
<path opacity="0.857143" d="M502.587 1640.9C699.423 1604.44 779.657 1544.52 877.495 1378.38C981.517 1181.01 1081.11 1096.18 1333.67 1058.97C1544.96 1027.83 1689.75 933.137 1799.82 732.567C1926.33 502.036 1999.84 407.355 2289.73 389.528" stroke="white" stroke-opacity="0.5" stroke-width="4"/>
<path opacity="0.877551" d="M500.457 1640.33C698.19 1622.05 782.5 1569.84 892.97 1413.71C1012.13 1227.12 1117.64 1151.93 1370.57 1137.97C1582.16 1126.3 1733.2 1045.42 1858.6 856.207C2002.74 638.724 2083.26 551.366 2371.52 560.075" stroke="white" stroke-opacity="0.5" stroke-width="4"/>
<path opacity="0.897959" d="M497.943 1639.1C694.915 1638.87 782.573 1594.62 904.687 1449.43C1037.91 1274.75 1148.43 1209.58 1399.6 1218.65C1609.72 1226.25 1765.71 1159.55 1905.33 982.829C2065.8 779.703 2152.61 700.165 2436.84 734.981" stroke="white" stroke-opacity="0.5" stroke-width="4"/>
<path opacity="0.918367" d="M495.105 1637.18C689.685 1654.72 779.953 1618.61 912.656 1485.2C1058.79 1323.45 1173.38 1268.59 1420.72 1300.28C1627.64 1326.79 1787.27 1274.52 1939.88 1111.32C2115.29 923.736 2207.67 852.448 2485.52 912.725" stroke="white" stroke-opacity="0.5" stroke-width="4"/>
<path opacity="0.938776" d="M492.004 1634.53C682.607 1669.42 774.74 1641.57 916.92 1520.67C1074.73 1372.77 1192.44 1328.43 1433.94 1382.14C1635.97 1427.06 1797.93 1389.34 1962.26 1240.57C2151.14 1069.58 2248.31 1006.91 2517.52 1091.79" stroke="white" stroke-opacity="0.5" stroke-width="4"/>
</g>
<path d="M921.7 504.8V518.5H903.1V575H886V518.5H867.4V504.8H921.7ZM982.882 546.2C982.882 547.8 982.782 549.467 982.582 551.2H943.882C944.149 554.667 945.249 557.333 947.182 559.2C949.182 561 951.615 561.9 954.482 561.9C958.749 561.9 961.715 560.1 963.382 556.5H981.582C980.649 560.167 978.949 563.467 976.482 566.4C974.082 569.333 971.049 571.633 967.382 573.3C963.715 574.967 959.615 575.8 955.082 575.8C949.615 575.8 944.749 574.633 940.482 572.3C936.215 569.967 932.882 566.633 930.482 562.3C928.082 557.967 926.882 552.9 926.882 547.1C926.882 541.3 928.049 536.233 930.382 531.9C932.782 527.567 936.115 524.233 940.382 521.9C944.649 519.567 949.549 518.4 955.082 518.4C960.482 518.4 965.282 519.533 969.482 521.8C973.682 524.067 976.949 527.3 979.282 531.5C981.682 535.7 982.882 540.6 982.882 546.2ZM965.382 541.7C965.382 538.767 964.382 536.433 962.382 534.7C960.382 532.967 957.882 532.1 954.882 532.1C952.015 532.1 949.582 532.933 947.582 534.6C945.649 536.267 944.449 538.633 943.982 541.7H965.382ZM1009 528.5C1011 525.433 1013.5 523.033 1016.5 521.3C1019.5 519.5 1022.84 518.6 1026.5 518.6V536.7H1021.8C1017.54 536.7 1014.34 537.633 1012.2 539.5C1010.07 541.3 1009 544.5 1009 549.1V575H991.903V519.2H1009V528.5ZM1105.88 518.6C1112.81 518.6 1118.31 520.7 1122.38 524.9C1126.51 529.1 1128.58 534.933 1128.58 542.4V575H1111.58V544.7C1111.58 541.1 1110.61 538.333 1108.68 536.4C1106.81 534.4 1104.21 533.4 1100.88 533.4C1097.54 533.4 1094.91 534.4 1092.98 536.4C1091.11 538.333 1090.18 541.1 1090.18 544.7V575H1073.18V544.7C1073.18 541.1 1072.21 538.333 1070.28 536.4C1068.41 534.4 1065.81 533.4 1062.48 533.4C1059.14 533.4 1056.51 534.4 1054.58 536.4C1052.71 538.333 1051.78 541.1 1051.78 544.7V575H1034.68V519.2H1051.78V526.2C1053.51 523.867 1055.78 522.033 1058.58 520.7C1061.38 519.3 1064.54 518.6 1068.08 518.6C1072.28 518.6 1076.01 519.5 1079.28 521.3C1082.61 523.1 1085.21 525.667 1087.08 529C1089.01 525.933 1091.64 523.433 1094.98 521.5C1098.31 519.567 1101.94 518.6 1105.88 518.6ZM1163.24 575.8C1158.37 575.8 1154.04 574.967 1150.24 573.3C1146.44 571.633 1143.44 569.367 1141.24 566.5C1139.04 563.567 1137.8 560.3 1137.54 556.7H1154.44C1154.64 558.633 1155.54 560.2 1157.14 561.4C1158.74 562.6 1160.7 563.2 1163.04 563.2C1165.17 563.2 1166.8 562.8 1167.94 562C1169.14 561.133 1169.74 560.033 1169.74 558.7C1169.74 557.1 1168.9 555.933 1167.24 555.2C1165.57 554.4 1162.87 553.533 1159.14 552.6C1155.14 551.667 1151.8 550.7 1149.14 549.7C1146.47 548.633 1144.17 547 1142.24 544.8C1140.3 542.533 1139.34 539.5 1139.34 535.7C1139.34 532.5 1140.2 529.6 1141.94 527C1143.74 524.333 1146.34 522.233 1149.74 520.7C1153.2 519.167 1157.3 518.4 1162.04 518.4C1169.04 518.4 1174.54 520.133 1178.54 523.6C1182.6 527.067 1184.94 531.667 1185.54 537.4H1169.74C1169.47 535.467 1168.6 533.933 1167.14 532.8C1165.74 531.667 1163.87 531.1 1161.54 531.1C1159.54 531.1 1158 531.5 1156.94 532.3C1155.87 533.033 1155.34 534.067 1155.34 535.4C1155.34 537 1156.17 538.2 1157.84 539C1159.57 539.8 1162.24 540.6 1165.84 541.4C1169.97 542.467 1173.34 543.533 1175.94 544.6C1178.54 545.6 1180.8 547.267 1182.74 549.6C1184.74 551.867 1185.77 554.933 1185.84 558.8C1185.84 562.067 1184.9 565 1183.04 567.6C1181.24 570.133 1178.6 572.133 1175.14 573.6C1171.74 575.067 1167.77 575.8 1163.24 575.8Z" fill="white"/>
<path fill-rule="evenodd" clip-rule="evenodd" d="M753.437 496.25C749.121 496.25 745.625 499.75 745.625 504.062V575.937C745.625 580.25 749.125 583.75 753.437 583.75H806.562C810.875 583.75 814.375 580.25 814.375 575.937V543.125C814.375 538.981 812.729 535.007 809.799 532.076C806.868 529.146 802.894 527.5 798.75 527.5H790.937C788.865 527.5 786.878 526.677 785.413 525.212C783.948 523.747 783.125 521.76 783.125 519.687V511.875C783.125 507.731 781.479 503.757 778.549 500.826C775.618 497.896 771.644 496.25 767.5 496.25H753.437ZM761.25 552.5C761.25 551.671 761.579 550.876 762.165 550.29C762.751 549.704 763.546 549.375 764.375 549.375H795.625C796.454 549.375 797.249 549.704 797.835 550.29C798.421 550.876 798.75 551.671 798.75 552.5C798.75 553.329 798.421 554.124 797.835 554.71C797.249 555.296 796.454 555.625 795.625 555.625H764.375C763.546 555.625 762.751 555.296 762.165 554.71C761.579 554.124 761.25 553.329 761.25 552.5ZM764.375 561.875C763.546 561.875 762.751 562.204 762.165 562.79C761.579 563.376 761.25 564.171 761.25 565C761.25 565.829 761.579 566.624 762.165 567.21C762.751 567.796 763.546 568.125 764.375 568.125H780C780.829 568.125 781.624 567.796 782.21 567.21C782.796 566.624 783.125 565.829 783.125 565C783.125 564.171 782.796 563.376 782.21 562.79C781.624 562.204 780.829 561.875 780 561.875H764.375Z" fill="white"/>
<path d="M784.046 497.567C787.49 501.537 789.382 506.619 789.375 511.875V519.687C789.375 520.55 790.075 521.25 790.938 521.25H798.75C804.006 521.243 809.088 523.135 813.058 526.579C811.225 519.607 807.573 513.247 802.475 508.15C797.378 503.052 791.018 499.4 784.046 497.567Z" fill="white"/>
</g>
<defs>
<clipPath id="clip0_1_2">
<rect width="1920" height="1080" fill="white"/>
</clipPath>
</defs>
</svg>
