<svg width="32" height="32" viewBox="0 0 32 32" fill="none" xmlns="http://www.w3.org/2000/svg">
<g clip-path="url(#clip0_43_2)">
<g clip-path="url(#clip1_43_2)">
<rect width="32" height="32" fill="#068FFF"/>
<path d="M32 0H0V32H32V0Z" fill="white"/>
<path d="M20.9168 31.5834L0.416558 11.0832C0.149841 10.8165 0 10.4548 0 10.0775V1.42222C0 0.63675 0.63675 0 1.42222 0H10.0775C10.4548 0 10.8165 0.149841 11.0832 0.416558L31.5834 20.9168C31.8502 21.1835 32 21.5452 32 21.9225V30.5778C32 31.3632 31.3632 32 30.5778 32H21.9225C21.5452 32 21.1835 31.8502 20.9168 31.5834Z" fill="#068FFF"/>
<path d="M9.24444 21.3333H1.42222C0.63675 21.3333 0 21.9701 0 22.7556V30.5778C0 31.3633 0.63675 32 1.42222 32H9.24444C10.0299 32 10.6667 31.3633 10.6667 30.5778V22.7556C10.6667 21.9701 10.0299 21.3333 9.24444 21.3333Z" fill="#068FFF"/>
<path d="M30.5778 0H22.7555C21.9701 0 21.3333 0.63675 21.3333 1.42222V9.24444C21.3333 10.0299 21.9701 10.6667 22.7555 10.6667H30.5778C31.3632 10.6667 32 10.0299 32 9.24444V1.42222C32 0.63675 31.3632 0 30.5778 0Z" fill="#068FFF"/>
</g>
</g>
<defs>
<clipPath id="clip0_43_2">
<rect width="32" height="32" fill="white"/>
</clipPath>
<clipPath id="clip1_43_2">
<rect width="32" height="32" fill="white"/>
</clipPath>
</defs>
</svg>
